<svg width="42" height="40" viewBox="0 0 42 40" fill="none" xmlns="http://www.w3.org/2000/svg">
<path d="M40.1388 32.6397L33.2739 29.3093" stroke="#5671A6" stroke-width="2.5" stroke-miterlimit="10" stroke-linecap="round" stroke-linejoin="round"/>
<path d="M37.087 35.9701L30.2222 32.6397" stroke="#5671A6" stroke-width="2.5" stroke-miterlimit="10" stroke-linecap="round" stroke-linejoin="round"/>
<path d="M4.41355 28.7147C3.59417 26.9435 3.14355 25.0083 3.14355 22.9815L5.81321 2L13.8661 8.86247C15.9622 8.08969 18.2676 7.66167 20.687 7.66167H21.4498C23.8692 7.66167 26.1746 8.08969 28.2707 8.86247L36.3236 2L38.9933 22.9815C38.9933 25.0083 38.5427 26.9435 37.7233 28.7147" stroke="#5671A6" stroke-width="2.5" stroke-miterlimit="10" stroke-linecap="round" stroke-linejoin="round"/>
<path d="M2 32.6397L8.86484 29.3093" stroke="#5671A6" stroke-width="2.5" stroke-miterlimit="10" stroke-linecap="round" stroke-linejoin="round"/>
<path d="M5.05029 35.9701L11.9151 32.6397" stroke="#5671A6" stroke-width="2.5" stroke-miterlimit="10" stroke-linecap="round" stroke-linejoin="round"/>
<path d="M17.8687 27.0919H23.9707" stroke="#5671A6" stroke-width="2.5" stroke-miterlimit="10" stroke-linecap="round" stroke-linejoin="round"/>
<path d="M13.293 29.0901C13.293 29.0901 19.0137 31.7544 20.9206 27.0919C22.8275 31.7544 28.8452 29.0582 28.8452 29.0582C28.8452 29.0582 26.8697 31.8642 26.2874 32.4101C23.341 35.173 19.3928 35.0064 16.2603 32.4849C15.5744 31.9327 13.293 29.0901 13.293 29.0901V29.0901Z" stroke="#5671A6" stroke-width="2.5" stroke-miterlimit="10" stroke-linecap="round" stroke-linejoin="round"/>
<path d="M11.4258 36.0095C14.1133 37.4754 17.2877 38.322 20.689 38.322H21.4503C24.8515 38.322 28.0274 37.4754 30.7135 36.0095" stroke="#5671A6" stroke-width="2.5" stroke-miterlimit="10" stroke-linecap="round" stroke-linejoin="round"/>
<path d="M35.1528 22.1557C32.869 19.4966 28.3013 19.4966 26.7788 22.1557" stroke="#5671A6" stroke-width="2.5" stroke-miterlimit="10" stroke-linecap="round" stroke-linejoin="round"/>
<path d="M6.98486 22.1557C9.26867 19.4966 13.8364 19.4966 15.3589 22.1557" stroke="#5671A6" stroke-width="2.5" stroke-miterlimit="10" stroke-linecap="round" stroke-linejoin="round"/>
</svg>
