<svg width="42" height="40" viewBox="0 0 42 40" fill="none" xmlns="http://www.w3.org/2000/svg">
<path d="M24.052 31.3241L21.001 27.9918" stroke="#5671A6" stroke-width="2.5" stroke-miterlimit="10" stroke-linecap="round" stroke-linejoin="round"/>
<path d="M17.9487 31.3241L20.9997 27.9918" stroke="#5671A6" stroke-width="2.5" stroke-miterlimit="10" stroke-linecap="round" stroke-linejoin="round"/>
<path d="M17.9487 27.9918H24.0507" stroke="#5671A6" stroke-width="2.5" stroke-miterlimit="10" stroke-linecap="round" stroke-linejoin="round"/>
<path d="M35.0134 19.5597C35.0134 19.5597 24.8146 23.3267 25.2942 23.8051C35.0529 31.5611 35.8186 20.64 35.0134 19.5597Z" stroke="#5671A6" stroke-width="2.5" stroke-miterlimit="10" stroke-linecap="round" stroke-linejoin="round"/>
<path d="M40.0694 32.657L33.2046 29.3247" stroke="#5671A6" stroke-width="2.5" stroke-miterlimit="10" stroke-linecap="round" stroke-linejoin="round"/>
<path d="M37.0171 35.9893L30.1523 32.657" stroke="#5671A6" stroke-width="2.5" stroke-miterlimit="10" stroke-linecap="round" stroke-linejoin="round"/>
<path d="M4.34518 28.7298C3.52581 26.9576 3.0752 25.0214 3.0752 22.9934L5.74483 2L13.7976 8.86636C15.8937 8.09314 18.1991 7.66488 20.6185 7.66488H21.3812C23.8006 7.66488 26.1052 8.09314 28.2028 8.86636L36.2549 2.00006L38.9245 22.9934C38.9245 25.0215 38.4739 26.9577 37.6545 28.7299" stroke="#5671A6" stroke-width="2.5" stroke-miterlimit="10" stroke-linecap="round" stroke-linejoin="round"/>
<path d="M11.3379 36.0037C14.0306 37.4733 17.2112 38.3219 20.619 38.3219H21.3818C24.7896 38.3219 27.9709 37.4733 30.6629 36.0037" stroke="#5671A6" stroke-width="2.5" stroke-miterlimit="10" stroke-linecap="round" stroke-linejoin="round"/>
<path d="M6.98735 19.5597C6.98735 19.5597 16.4234 23.9931 16.7065 23.8051C7.28599 31.9678 6.03611 21.3319 6.98735 19.5597Z" stroke="#5671A6" stroke-width="2.5" stroke-miterlimit="10" stroke-linecap="round" stroke-linejoin="round"/>
<path d="M1.93115 32.657L8.79592 29.3247" stroke="#5671A6" stroke-width="2.5" stroke-miterlimit="10" stroke-linecap="round" stroke-linejoin="round"/>
<path d="M4.9834 35.9893L11.8482 32.657" stroke="#5671A6" stroke-width="2.5" stroke-miterlimit="10" stroke-linecap="round" stroke-linejoin="round"/>
<path d="M11.8473 23.9932C12.6898 23.9932 13.3728 23.3964 13.3728 22.6602C13.3728 21.9241 12.6898 21.3273 11.8473 21.3273C11.0048 21.3273 10.3218 21.9241 10.3218 22.6602C10.3218 23.3964 11.0048 23.9932 11.8473 23.9932Z" fill="#5671A6"/>
<path d="M30.1529 23.9932C30.9955 23.9932 31.6784 23.3964 31.6784 22.6602C31.6784 21.9241 30.9955 21.3273 30.1529 21.3273C29.3104 21.3273 28.6274 21.9241 28.6274 22.6602C28.6274 23.3964 29.3104 23.9932 30.1529 23.9932Z" fill="#5671A6"/>
</svg>
