<svg width="42" height="40" viewBox="0 0 42 40" fill="none" xmlns="http://www.w3.org/2000/svg">
<path d="M40.0685 32.6228L33.2036 29.2905" stroke="#5671A6" stroke-width="2.5" stroke-miterlimit="10" stroke-linecap="round" stroke-linejoin="round"/>
<path d="M37.0182 35.9551L30.1533 32.6228" stroke="#5671A6" stroke-width="2.5" stroke-miterlimit="10" stroke-linecap="round" stroke-linejoin="round"/>
<path d="M4.34519 28.6956C3.52581 26.9234 3.0752 24.9871 3.0752 22.9591L5.74485 1.9657L13.7978 8.83206C15.8939 8.05885 18.1993 7.63058 20.6187 7.63058H21.3814C23.8009 7.63058 26.1062 8.05885 28.2023 8.83206L36.2553 1.96576L38.9249 22.9592C38.9249 24.9872 38.4743 26.9234 37.6549 28.6956" stroke="#5671A6" stroke-width="2.5" stroke-miterlimit="10" stroke-linecap="round" stroke-linejoin="round"/>
<path d="M11.3374 35.9694C14.0302 37.439 17.2108 38.2877 20.6187 38.2877H21.3814C24.7893 38.2877 27.9714 37.439 30.6627 35.9694" stroke="#5671A6" stroke-width="2.5" stroke-miterlimit="10" stroke-linecap="round" stroke-linejoin="round"/>
<path d="M1.93115 32.6228L8.79599 29.2905" stroke="#5671A6" stroke-width="2.5" stroke-miterlimit="10" stroke-linecap="round" stroke-linejoin="round"/>
<path d="M4.98145 35.9551L11.8463 32.6228" stroke="#5671A6" stroke-width="2.5" stroke-miterlimit="10" stroke-linecap="round" stroke-linejoin="round"/>
<path d="M35.1101 22.8625C32.8218 20.1967 28.2452 20.1967 26.7197 22.8625" stroke="#5671A6" stroke-width="2.5" stroke-miterlimit="10" stroke-linecap="round" stroke-linejoin="round"/>
<path d="M6.88818 22.8625C9.17646 20.1967 13.753 20.1967 15.2785 22.8625" stroke="#5671A6" stroke-width="2.5" stroke-miterlimit="10" stroke-linecap="round" stroke-linejoin="round"/>
<path d="M20.7412 28.4725C20.7412 28.4725 28.7691 30.6022 20.7412 32.1805C20.7412 32.1805 28.7179 34.172 20.7412 35.4544" stroke="#5671A6" stroke-width="2.5" stroke-miterlimit="10" stroke-linecap="round" stroke-linejoin="round"/>
</svg>
