<svg width="170" height="150" viewBox="0 0 170 150" fill="none" xmlns="http://www.w3.org/2000/svg">
<g clip-path="url(#clip0_338_2517)">
<path d="M0 72.3833C73 112 107 26 170 72.3833V150H0V72.3833Z" fill="#FFFCB6"/>
<path d="M0 90.0026C61 39.5 124.5 115 170 90.0026V150H0V90.0026Z" fill="#EDE98B"/>
<path d="M17.616 127.832V135.672C17.616 136.76 17.3013 137.608 16.672 138.216C16.0427 138.813 15.2 139.112 14.144 139.112C13.0773 139.112 12.2133 138.803 11.552 138.184C10.9013 137.565 10.576 136.701 10.576 135.592H12.816C12.8267 136.072 12.9387 136.445 13.152 136.712C13.376 136.979 13.696 137.112 14.112 137.112C14.5173 137.112 14.8267 136.984 15.04 136.728C15.2533 136.472 15.36 136.12 15.36 135.672V127.832H17.616ZM19.653 134.536C19.653 133.64 19.829 132.845 20.181 132.152C20.5437 131.459 21.029 130.925 21.637 130.552C22.2557 130.179 22.9437 129.992 23.701 129.992C24.3623 129.992 24.9383 130.125 25.429 130.392C25.9303 130.659 26.3303 130.995 26.629 131.4V130.136H28.885V139H26.629V137.704C26.341 138.12 25.941 138.467 25.429 138.744C24.9277 139.011 24.3463 139.144 23.685 139.144C22.9383 139.144 22.2557 138.952 21.637 138.568C21.029 138.184 20.5437 137.645 20.181 136.952C19.829 136.248 19.653 135.443 19.653 134.536ZM26.629 134.568C26.629 134.024 26.5223 133.56 26.309 133.176C26.0957 132.781 25.8077 132.483 25.445 132.28C25.0823 132.067 24.693 131.96 24.277 131.96C23.861 131.96 23.477 132.061 23.125 132.264C22.773 132.467 22.485 132.765 22.261 133.16C22.0477 133.544 21.941 134.003 21.941 134.536C21.941 135.069 22.0477 135.539 22.261 135.944C22.485 136.339 22.773 136.643 23.125 136.856C23.4877 137.069 23.8717 137.176 24.277 137.176C24.693 137.176 25.0823 137.075 25.445 136.872C25.8077 136.659 26.0957 136.36 26.309 135.976C26.5223 135.581 26.629 135.112 26.629 134.568ZM34.7688 136.936L37.0088 130.136H39.3928L36.1128 139H33.3928L30.1288 130.136H32.5288L34.7688 136.936ZM40.0749 134.536C40.0749 133.64 40.2509 132.845 40.6029 132.152C40.9655 131.459 41.4509 130.925 42.0589 130.552C42.6775 130.179 43.3655 129.992 44.1229 129.992C44.7842 129.992 45.3602 130.125 45.8509 130.392C46.3522 130.659 46.7522 130.995 47.0509 131.4V130.136H49.3069V139H47.0509V137.704C46.7629 138.12 46.3629 138.467 45.8509 138.744C45.3495 139.011 44.7682 139.144 44.1069 139.144C43.3602 139.144 42.6775 138.952 42.0589 138.568C41.4509 138.184 40.9655 137.645 40.6029 136.952C40.2509 136.248 40.0749 135.443 40.0749 134.536ZM47.0509 134.568C47.0509 134.024 46.9442 133.56 46.7309 133.176C46.5175 132.781 46.2295 132.483 45.8669 132.28C45.5042 132.067 45.1149 131.96 44.6989 131.96C44.2829 131.96 43.8989 132.061 43.5469 132.264C43.1949 132.467 42.9069 132.765 42.6829 133.16C42.4695 133.544 42.3629 134.003 42.3629 134.536C42.3629 135.069 42.4695 135.539 42.6829 135.944C42.9069 136.339 43.1949 136.643 43.5469 136.856C43.9095 137.069 44.2935 137.176 44.6989 137.176C45.1149 137.176 45.5042 137.075 45.8669 136.872C46.2295 136.659 46.5175 136.36 46.7309 135.976C46.9442 135.581 47.0509 135.112 47.0509 134.568ZM55.3506 139.112C54.572 139.112 53.868 138.979 53.2386 138.712C52.62 138.445 52.1293 138.061 51.7666 137.56C51.404 137.059 51.2173 136.467 51.2066 135.784H53.6066C53.6386 136.243 53.7986 136.605 54.0866 136.872C54.3853 137.139 54.7906 137.272 55.3026 137.272C55.8253 137.272 56.236 137.149 56.5346 136.904C56.8333 136.648 56.9826 136.317 56.9826 135.912C56.9826 135.581 56.8813 135.309 56.6786 135.096C56.476 134.883 56.22 134.717 55.9106 134.6C55.612 134.472 55.196 134.333 54.6626 134.184C53.9373 133.971 53.3453 133.763 52.8866 133.56C52.4386 133.347 52.0493 133.032 51.7186 132.616C51.3986 132.189 51.2386 131.624 51.2386 130.92C51.2386 130.259 51.404 129.683 51.7346 129.192C52.0653 128.701 52.5293 128.328 53.1266 128.072C53.724 127.805 54.4066 127.672 55.1746 127.672C56.3266 127.672 57.26 127.955 57.9746 128.52C58.7 129.075 59.1 129.853 59.1746 130.856H56.7106C56.6893 130.472 56.524 130.157 56.2146 129.912C55.916 129.656 55.516 129.528 55.0146 129.528C54.5773 129.528 54.2253 129.64 53.9586 129.864C53.7026 130.088 53.5746 130.413 53.5746 130.84C53.5746 131.139 53.6706 131.389 53.8626 131.592C54.0653 131.784 54.3106 131.944 54.5986 132.072C54.8973 132.189 55.3133 132.328 55.8466 132.488C56.572 132.701 57.164 132.915 57.6226 133.128C58.0813 133.341 58.476 133.661 58.8066 134.088C59.1373 134.515 59.3026 135.075 59.3026 135.768C59.3026 136.365 59.148 136.92 58.8386 137.432C58.5293 137.944 58.076 138.355 57.4786 138.664C56.8813 138.963 56.172 139.112 55.3506 139.112ZM60.6686 134.568C60.6686 133.651 60.8553 132.851 61.2286 132.168C61.602 131.475 62.1193 130.941 62.7806 130.568C63.442 130.184 64.1993 129.992 65.0526 129.992C66.1513 129.992 67.058 130.269 67.7726 130.824C68.498 131.368 68.9833 132.136 69.2286 133.128H66.8126C66.6846 132.744 66.466 132.445 66.1566 132.232C65.858 132.008 65.4846 131.896 65.0366 131.896C64.3966 131.896 63.89 132.131 63.5166 132.6C63.1433 133.059 62.9566 133.715 62.9566 134.568C62.9566 135.411 63.1433 136.067 63.5166 136.536C63.89 136.995 64.3966 137.224 65.0366 137.224C65.9433 137.224 66.5353 136.819 66.8126 136.008H69.2286C68.9833 136.968 68.498 137.731 67.7726 138.296C67.0473 138.861 66.1406 139.144 65.0526 139.144C64.1993 139.144 63.442 138.957 62.7806 138.584C62.1193 138.2 61.602 137.667 61.2286 136.984C60.8553 136.291 60.6686 135.485 60.6686 134.568ZM73.1096 131.512C73.3976 131.043 73.771 130.675 74.2296 130.408C74.699 130.141 75.2323 130.008 75.8296 130.008V132.36H75.2376C74.5336 132.36 74.0003 132.525 73.6376 132.856C73.2856 133.187 73.1096 133.763 73.1096 134.584V139H70.8696V130.136H73.1096V131.512ZM78.4744 129.08C78.0797 129.08 77.749 128.957 77.4824 128.712C77.2264 128.456 77.0984 128.141 77.0984 127.768C77.0984 127.395 77.2264 127.085 77.4824 126.84C77.749 126.584 78.0797 126.456 78.4744 126.456C78.869 126.456 79.1944 126.584 79.4504 126.84C79.717 127.085 79.8504 127.395 79.8504 127.768C79.8504 128.141 79.717 128.456 79.4504 128.712C79.1944 128.957 78.869 129.08 78.4744 129.08ZM79.5784 130.136V139H77.3384V130.136H79.5784ZM84.0315 131.416C84.3195 131.011 84.7142 130.675 85.2155 130.408C85.7275 130.131 86.3088 129.992 86.9595 129.992C87.7168 129.992 88.3995 130.179 89.0075 130.552C89.6262 130.925 90.1115 131.459 90.4635 132.152C90.8262 132.835 91.0075 133.629 91.0075 134.536C91.0075 135.443 90.8262 136.248 90.4635 136.952C90.1115 137.645 89.6262 138.184 89.0075 138.568C88.3995 138.952 87.7168 139.144 86.9595 139.144C86.3088 139.144 85.7328 139.011 85.2315 138.744C84.7408 138.477 84.3408 138.141 84.0315 137.736V143.224H81.7915V130.136H84.0315V131.416ZM88.7195 134.536C88.7195 134.003 88.6075 133.544 88.3835 133.16C88.1702 132.765 87.8822 132.467 87.5195 132.264C87.1675 132.061 86.7835 131.96 86.3675 131.96C85.9622 131.96 85.5782 132.067 85.2155 132.28C84.8635 132.483 84.5755 132.781 84.3515 133.176C84.1382 133.571 84.0315 134.035 84.0315 134.568C84.0315 135.101 84.1382 135.565 84.3515 135.96C84.5755 136.355 84.8635 136.659 85.2155 136.872C85.5782 137.075 85.9622 137.176 86.3675 137.176C86.7835 137.176 87.1675 137.069 87.5195 136.856C87.8822 136.643 88.1702 136.339 88.3835 135.944C88.6075 135.549 88.7195 135.08 88.7195 134.536ZM95.2433 131.976V136.264C95.2433 136.563 95.3126 136.781 95.4513 136.92C95.6006 137.048 95.8459 137.112 96.1873 137.112H97.2273V139H95.8193C93.9313 139 92.9873 138.083 92.9873 136.248V131.976H91.9313V130.136H92.9873V127.944H95.2433V130.136H97.2273V131.976H95.2433Z" fill="#383838"/>
<path d="M134.735 129.272H129.551V132.008C129.775 131.731 130.095 131.507 130.511 131.336C130.927 131.155 131.37 131.064 131.839 131.064C132.692 131.064 133.391 131.251 133.935 131.624C134.479 131.997 134.874 132.477 135.119 133.064C135.364 133.64 135.487 134.259 135.487 134.92C135.487 136.147 135.135 137.133 134.431 137.88C133.738 138.627 132.746 139 131.455 139C130.239 139 129.268 138.696 128.543 138.088C127.818 137.48 127.407 136.685 127.311 135.704H129.487C129.583 136.131 129.796 136.472 130.127 136.728C130.468 136.984 130.9 137.112 131.423 137.112C132.052 137.112 132.527 136.915 132.847 136.52C133.167 136.125 133.327 135.603 133.327 134.952C133.327 134.291 133.162 133.789 132.831 133.448C132.511 133.096 132.036 132.92 131.407 132.92C130.959 132.92 130.586 133.032 130.287 133.256C129.988 133.48 129.775 133.779 129.647 134.152H127.503V127.304H134.735V129.272ZM137.192 133.016C137.192 131.171 137.522 129.725 138.184 128.68C138.856 127.635 139.965 127.112 141.512 127.112C143.058 127.112 144.162 127.635 144.824 128.68C145.496 129.725 145.832 131.171 145.832 133.016C145.832 134.872 145.496 136.328 144.824 137.384C144.162 138.44 143.058 138.968 141.512 138.968C139.965 138.968 138.856 138.44 138.184 137.384C137.522 136.328 137.192 134.872 137.192 133.016ZM143.624 133.016C143.624 132.227 143.57 131.565 143.464 131.032C143.368 130.488 143.165 130.045 142.856 129.704C142.557 129.363 142.109 129.192 141.512 129.192C140.914 129.192 140.461 129.363 140.152 129.704C139.853 130.045 139.65 130.488 139.544 131.032C139.448 131.565 139.4 132.227 139.4 133.016C139.4 133.827 139.448 134.509 139.544 135.064C139.64 135.608 139.842 136.051 140.152 136.392C140.461 136.723 140.914 136.888 141.512 136.888C142.109 136.888 142.562 136.723 142.872 136.392C143.181 136.051 143.384 135.608 143.48 135.064C143.576 134.509 143.624 133.827 143.624 133.016ZM147.28 130.2C147.28 129.389 147.514 128.755 147.984 128.296C148.464 127.837 149.077 127.608 149.824 127.608C150.57 127.608 151.178 127.837 151.648 128.296C152.128 128.755 152.368 129.389 152.368 130.2C152.368 131.021 152.128 131.661 151.648 132.12C151.178 132.579 150.57 132.808 149.824 132.808C149.077 132.808 148.464 132.579 147.984 132.12C147.514 131.661 147.28 131.021 147.28 130.2ZM157.552 127.8L151.264 139H149.088L155.36 127.8H157.552ZM149.808 128.952C149.221 128.952 148.928 129.368 148.928 130.2C148.928 131.043 149.221 131.464 149.808 131.464C150.096 131.464 150.32 131.363 150.48 131.16C150.64 130.947 150.72 130.627 150.72 130.2C150.72 129.368 150.416 128.952 149.808 128.952ZM154.304 136.584C154.304 135.763 154.538 135.128 155.008 134.68C155.488 134.221 156.101 133.992 156.848 133.992C157.594 133.992 158.197 134.221 158.656 134.68C159.125 135.128 159.36 135.763 159.36 136.584C159.36 137.405 159.125 138.045 158.656 138.504C158.197 138.963 157.594 139.192 156.848 139.192C156.09 139.192 155.477 138.963 155.008 138.504C154.538 138.045 154.304 137.405 154.304 136.584ZM156.832 135.336C156.224 135.336 155.92 135.752 155.92 136.584C155.92 137.427 156.224 137.848 156.832 137.848C157.429 137.848 157.728 137.427 157.728 136.584C157.728 135.752 157.429 135.336 156.832 135.336Z" fill="#616161"/>
<path opacity="0.5" d="M9 91V121H39V91H9ZM25.3343 113.491C25.3343 117.18 23.5465 118.41 20.8953 118.41C20.2025 118.409 19.514 118.3 18.8547 118.087L19.1512 116.116C19.6338 116.282 20.141 116.364 20.6512 116.36C22.0465 116.36 22.8924 115.733 22.8924 113.413V104.831H25.3343V113.491ZM31.0203 118.392C29.7644 118.395 28.5263 118.096 27.4099 117.52L27.9506 115.497C28.9363 116.053 30.0457 116.353 31.1773 116.369C32.7209 116.378 33.593 115.645 33.593 114.555C33.593 113.465 32.9302 112.977 31.2384 112.34C29.032 111.555 27.6279 110.369 27.6279 108.459C27.6279 106.27 29.4506 104.622 32.3547 104.622C33.4588 104.588 34.5553 104.816 35.5552 105.285L34.9709 107.247C34.1446 106.827 33.2293 106.612 32.3023 106.619C30.75 106.619 30.0959 107.439 30.0959 108.224C30.0959 109.253 30.8721 109.733 32.6512 110.413C34.9709 111.285 36.0872 112.462 36.0872 114.381C36.0872 116.535 34.4651 118.392 31.0203 118.392Z" fill="black"/>
<path opacity="0.5" d="M9 91V121H39V91H9ZM24.8686 116.563C24.4258 117.463 23.5805 118.054 22.601 118.339C21.096 118.685 19.6565 118.488 18.5856 117.845C17.869 117.406 17.3093 116.729 16.9294 115.949L19.2142 114.55C19.2341 114.558 19.2941 114.667 19.3742 114.807C19.6656 115.295 19.9169 115.641 20.4108 115.883C20.8961 116.049 21.9614 116.155 22.3728 115.301C22.6241 114.866 22.5442 113.47 22.5442 111.925C22.5439 109.498 22.5552 107.08 22.5552 104.68H25.3654C25.3654 107.32 25.3798 109.82 25.3654 112.396C25.3714 113.976 25.5084 115.384 24.8686 116.563ZM36.5263 115.769C35.5495 119.11 30.1034 119.219 27.9271 117.011C27.4673 116.492 27.179 116.22 26.9047 115.621C28.0613 114.955 28.0613 114.955 29.1866 114.304C29.7979 115.244 30.3631 115.761 31.38 115.972C32.7595 116.14 34.1474 115.666 33.8362 114.201C33.5162 113.005 31.0114 112.714 29.3066 111.434C27.576 110.272 27.1704 107.447 28.5926 105.833C29.0666 105.237 29.875 104.791 30.7231 104.577L31.6082 104.463C33.3077 104.428 34.3699 104.877 35.1497 105.748C35.3666 105.968 35.5438 106.205 35.875 106.719C34.9697 107.296 34.9726 107.29 33.6758 108.13C33.3989 107.533 32.9393 107.158 32.4535 106.996C31.6994 106.767 30.7486 107.016 30.5513 107.812C30.4829 108.058 30.497 108.286 30.6058 108.692C30.9113 109.389 31.9366 109.692 32.8562 110.114C35.5037 111.188 36.3977 112.339 36.6175 113.71C36.8292 114.89 36.5664 115.655 36.5263 115.769V115.769Z" fill="#F0DB4F"/>
</g>
<defs>
<clipPath id="clip0_338_2517">
<path d="M0 5C0 2.23858 2.23858 0 5 0H165C167.761 0 170 2.23858 170 5V145C170 147.761 167.761 150 165 150H5C2.23858 150 0 147.761 0 145V5Z" fill="white"/>
</clipPath>
</defs>
</svg>
