<svg width="69" height="24" viewBox="0 0 69 24" fill="none" xmlns="http://www.w3.org/2000/svg">
<path d="M17 4H14V3C14 2.20435 13.6839 1.44129 13.1213 0.87868C12.5587 0.316071 11.7956 0 11 0H9C8.20435 0 7.44129 0.316071 6.87868 0.87868C6.31607 1.44129 6 2.20435 6 3V4H3C2.20435 4 1.44129 4.31607 0.87868 4.87868C0.316071 5.44129 0 6.20435 0 7V16C0 16.7956 0.316071 17.5587 0.87868 18.1213C1.44129 18.6839 2.20435 19 3 19H17C17.7956 19 18.5587 18.6839 19.1213 18.1213C19.6839 17.5587 20 16.7956 20 16V7C20 6.20435 19.6839 5.44129 19.1213 4.87868C18.5587 4.31607 17.7956 4 17 4ZM8 3C8 2.73478 8.10536 2.48043 8.29289 2.29289C8.48043 2.10536 8.73478 2 9 2H11C11.2652 2 11.5196 2.10536 11.7071 2.29289C11.8946 2.48043 12 2.73478 12 3V4H8V3ZM18 16C18 16.2652 17.8946 16.5196 17.7071 16.7071C17.5196 16.8946 17.2652 17 17 17H3C2.73478 17 2.48043 16.8946 2.29289 16.7071C2.10536 16.5196 2 16.2652 2 16V10.95H5V12C5 12.2652 5.10536 12.5196 5.29289 12.7071C5.48043 12.8946 5.73478 13 6 13C6.26522 13 6.51957 12.8946 6.70711 12.7071C6.89464 12.5196 7 12.2652 7 12V10.95H13V12C13 12.2652 13.1054 12.5196 13.2929 12.7071C13.4804 12.8946 13.7348 13 14 13C14.2652 13 14.5196 12.8946 14.7071 12.7071C14.8946 12.5196 15 12.2652 15 12V10.95H18V16ZM18 9H2V7C2 6.73478 2.10536 6.48043 2.29289 6.29289C2.48043 6.10536 2.73478 6 3 6H17C17.2652 6 17.5196 6.10536 17.7071 6.29289C17.8946 6.48043 18 6.73478 18 7V9Z" fill="#383838"/>
<path d="M41.032 6.832L37.912 18H35.272L33.176 10.048L30.984 18L28.36 18.016L25.352 6.832H27.752L29.72 15.504L31.992 6.832H34.488L36.632 15.456L38.616 6.832H41.032ZM46.4306 18.144C45.5773 18.144 44.8093 17.9573 44.1266 17.584C43.444 17.2 42.9053 16.6613 42.5106 15.968C42.1266 15.2747 41.9346 14.4747 41.9346 13.568C41.9346 12.6613 42.132 11.8613 42.5266 11.168C42.932 10.4747 43.4813 9.94133 44.1746 9.568C44.868 9.184 45.6413 8.992 46.4946 8.992C47.348 8.992 48.1213 9.184 48.8146 9.568C49.508 9.94133 50.052 10.4747 50.4466 11.168C50.852 11.8613 51.0546 12.6613 51.0546 13.568C51.0546 14.4747 50.8466 15.2747 50.4306 15.968C50.0253 16.6613 49.4706 17.2 48.7666 17.584C48.0733 17.9573 47.2946 18.144 46.4306 18.144ZM46.4306 16.192C46.836 16.192 47.2146 16.096 47.5666 15.904C47.9293 15.7013 48.2173 15.4027 48.4306 15.008C48.644 14.6133 48.7506 14.1333 48.7506 13.568C48.7506 12.7253 48.5266 12.08 48.0786 11.632C47.6413 11.1733 47.1026 10.944 46.4626 10.944C45.8226 10.944 45.284 11.1733 44.8466 11.632C44.42 12.08 44.2066 12.7253 44.2066 13.568C44.2066 14.4107 44.4146 15.0613 44.8306 15.52C45.2573 15.968 45.7906 16.192 46.4306 16.192ZM54.9378 10.512C55.2258 10.0427 55.5991 9.67467 56.0578 9.408C56.5271 9.14133 57.0604 9.008 57.6578 9.008V11.36H57.0658C56.3618 11.36 55.8284 11.5253 55.4658 11.856C55.1138 12.1867 54.9378 12.7627 54.9378 13.584V18H52.6978V9.136H54.9378V10.512ZM64.4145 18L61.4065 14.224V18H59.1665V6.16H61.4065V12.896L64.3825 9.136H67.2945L63.3905 13.584L67.3265 18H64.4145Z" fill="#383838"/>
</svg>
