<svg width="170" height="150" viewBox="0 0 170 150" fill="none" xmlns="http://www.w3.org/2000/svg">
<path d="M0 28.1673C49 55.0127 118 0.266391 170 28.1673V150H0V28.1673Z" fill="#AEDCE2"/>
<path d="M0 39.093C72 6.47455 131 58.0687 170 39.093V150H0V39.093Z" fill="#84D0DB"/>
<path d="M14.96 139.112C14.1813 139.112 13.4773 138.979 12.848 138.712C12.2293 138.445 11.7387 138.061 11.376 137.56C11.0133 137.059 10.8267 136.467 10.816 135.784H13.216C13.248 136.243 13.408 136.605 13.696 136.872C13.9947 137.139 14.4 137.272 14.912 137.272C15.4347 137.272 15.8453 137.149 16.144 136.904C16.4427 136.648 16.592 136.317 16.592 135.912C16.592 135.581 16.4907 135.309 16.288 135.096C16.0853 134.883 15.8293 134.717 15.52 134.6C15.2213 134.472 14.8053 134.333 14.272 134.184C13.5467 133.971 12.9547 133.763 12.496 133.56C12.048 133.347 11.6587 133.032 11.328 132.616C11.008 132.189 10.848 131.624 10.848 130.92C10.848 130.259 11.0133 129.683 11.344 129.192C11.6747 128.701 12.1387 128.328 12.736 128.072C13.3333 127.805 14.016 127.672 14.784 127.672C15.936 127.672 16.8693 127.955 17.584 128.52C18.3093 129.075 18.7093 129.853 18.784 130.856H16.32C16.2987 130.472 16.1333 130.157 15.824 129.912C15.5253 129.656 15.1253 129.528 14.624 129.528C14.1867 129.528 13.8347 129.64 13.568 129.864C13.312 130.088 13.184 130.413 13.184 130.84C13.184 131.139 13.28 131.389 13.472 131.592C13.6747 131.784 13.92 131.944 14.208 132.072C14.5067 132.189 14.9227 132.328 15.456 132.488C16.1813 132.701 16.7733 132.915 17.232 133.128C17.6907 133.341 18.0853 133.661 18.416 134.088C18.7467 134.515 18.912 135.075 18.912 135.768C18.912 136.365 18.7573 136.92 18.448 137.432C18.1387 137.944 17.6853 138.355 17.088 138.664C16.4907 138.963 15.7813 139.112 14.96 139.112ZM29.174 140.968L27.478 138.936C27.0087 139.053 26.5287 139.112 26.038 139.112C24.9927 139.112 24.0327 138.867 23.158 138.376C22.2833 137.885 21.59 137.208 21.078 136.344C20.566 135.469 20.31 134.483 20.31 133.384C20.31 132.296 20.566 131.32 21.078 130.456C21.59 129.581 22.2833 128.899 23.158 128.408C24.0327 127.917 24.9927 127.672 26.038 127.672C27.094 127.672 28.054 127.917 28.918 128.408C29.7927 128.899 30.4807 129.581 30.982 130.456C31.494 131.32 31.75 132.296 31.75 133.384C31.75 134.376 31.5367 135.283 31.11 136.104C30.694 136.915 30.1233 137.576 29.398 138.088L31.958 140.968H29.174ZM22.614 133.384C22.614 134.131 22.758 134.787 23.046 135.352C23.334 135.917 23.734 136.355 24.246 136.664C24.7687 136.963 25.366 137.112 26.038 137.112C26.71 137.112 27.302 136.963 27.814 136.664C28.326 136.355 28.726 135.917 29.014 135.352C29.302 134.787 29.446 134.131 29.446 133.384C29.446 132.637 29.302 131.987 29.014 131.432C28.726 130.867 28.326 130.435 27.814 130.136C27.302 129.837 26.71 129.688 26.038 129.688C25.366 129.688 24.7687 129.837 24.246 130.136C23.734 130.435 23.334 130.867 23.046 131.432C22.758 131.987 22.614 132.637 22.614 133.384ZM35.6878 137.224H39.3678V139H33.4478V127.832H35.6878V137.224Z" fill="#383838"/>
<path d="M128.878 132.824C127.811 132.269 127.278 131.411 127.278 130.248C127.278 129.672 127.422 129.149 127.71 128.68C128.009 128.2 128.451 127.821 129.038 127.544C129.635 127.256 130.361 127.112 131.214 127.112C132.067 127.112 132.787 127.256 133.374 127.544C133.971 127.821 134.414 128.2 134.702 128.68C135.001 129.149 135.15 129.672 135.15 130.248C135.15 130.835 135.006 131.352 134.718 131.8C134.43 132.237 134.046 132.579 133.566 132.824C134.153 133.08 134.611 133.453 134.942 133.944C135.273 134.435 135.438 135.016 135.438 135.688C135.438 136.413 135.251 137.048 134.878 137.592C134.515 138.125 134.014 138.536 133.374 138.824C132.734 139.112 132.014 139.256 131.214 139.256C130.414 139.256 129.694 139.112 129.054 138.824C128.425 138.536 127.923 138.125 127.55 137.592C127.187 137.048 127.006 136.413 127.006 135.688C127.006 135.016 127.171 134.435 127.502 133.944C127.833 133.443 128.291 133.069 128.878 132.824ZM132.974 130.568C132.974 130.045 132.814 129.64 132.494 129.352C132.185 129.064 131.758 128.92 131.214 128.92C130.681 128.92 130.254 129.064 129.934 129.352C129.625 129.64 129.47 130.051 129.47 130.584C129.47 131.064 129.63 131.448 129.95 131.736C130.281 132.024 130.702 132.168 131.214 132.168C131.726 132.168 132.147 132.024 132.478 131.736C132.809 131.437 132.974 131.048 132.974 130.568ZM131.214 133.8C130.606 133.8 130.11 133.955 129.726 134.264C129.353 134.573 129.166 135.016 129.166 135.592C129.166 136.125 129.347 136.563 129.71 136.904C130.083 137.235 130.585 137.4 131.214 137.4C131.843 137.4 132.339 137.229 132.702 136.888C133.065 136.547 133.246 136.115 133.246 135.592C133.246 135.027 133.059 134.589 132.686 134.28C132.313 133.96 131.822 133.8 131.214 133.8ZM145.047 129.272H139.863V132.008C140.087 131.731 140.407 131.507 140.823 131.336C141.239 131.155 141.682 131.064 142.151 131.064C143.005 131.064 143.703 131.251 144.247 131.624C144.791 131.997 145.186 132.477 145.431 133.064C145.677 133.64 145.799 134.259 145.799 134.92C145.799 136.147 145.447 137.133 144.743 137.88C144.05 138.627 143.058 139 141.767 139C140.551 139 139.581 138.696 138.855 138.088C138.13 137.48 137.719 136.685 137.623 135.704H139.799C139.895 136.131 140.109 136.472 140.439 136.728C140.781 136.984 141.213 137.112 141.735 137.112C142.365 137.112 142.839 136.915 143.159 136.52C143.479 136.125 143.639 135.603 143.639 134.952C143.639 134.291 143.474 133.789 143.143 133.448C142.823 133.096 142.349 132.92 141.719 132.92C141.271 132.92 140.898 133.032 140.599 133.256C140.301 133.48 140.087 133.779 139.959 134.152H137.815V127.304H145.047V129.272ZM147.248 130.2C147.248 129.389 147.483 128.755 147.952 128.296C148.432 127.837 149.046 127.608 149.792 127.608C150.539 127.608 151.147 127.837 151.616 128.296C152.096 128.755 152.336 129.389 152.336 130.2C152.336 131.021 152.096 131.661 151.616 132.12C151.147 132.579 150.539 132.808 149.792 132.808C149.046 132.808 148.432 132.579 147.952 132.12C147.483 131.661 147.248 131.021 147.248 130.2ZM157.52 127.8L151.232 139H149.056L155.328 127.8H157.52ZM149.776 128.952C149.19 128.952 148.896 129.368 148.896 130.2C148.896 131.043 149.19 131.464 149.776 131.464C150.064 131.464 150.288 131.363 150.448 131.16C150.608 130.947 150.688 130.627 150.688 130.2C150.688 129.368 150.384 128.952 149.776 128.952ZM154.272 136.584C154.272 135.763 154.507 135.128 154.976 134.68C155.456 134.221 156.07 133.992 156.816 133.992C157.563 133.992 158.166 134.221 158.624 134.68C159.094 135.128 159.328 135.763 159.328 136.584C159.328 137.405 159.094 138.045 158.624 138.504C158.166 138.963 157.563 139.192 156.816 139.192C156.059 139.192 155.446 138.963 154.976 138.504C154.507 138.045 154.272 137.405 154.272 136.584ZM156.8 135.336C156.192 135.336 155.888 135.752 155.888 136.584C155.888 137.427 156.192 137.848 156.8 137.848C157.398 137.848 157.696 137.427 157.696 136.584C157.696 135.752 157.398 135.336 156.8 135.336Z" fill="#616161"/>
<path d="M24 108.682C25.4822 108.682 26.6838 107.481 26.6838 105.999C26.6838 104.516 25.4822 103.315 24 103.315C22.5178 103.315 21.3163 104.516 21.3163 105.999C21.3163 107.481 22.5178 108.682 24 108.682Z" fill="#53C1DE"/>
<path d="M20.4564 117.981C17.6482 117.778 14.8727 117.072 13.1705 116.125C12.201 115.586 11.4623 114.924 11.1725 114.334L11 113.982V102.965V91.9469L11.1365 91.6698C11.7463 90.4317 13.6926 89.3155 16.4095 88.6457C17.3317 88.4184 18.6632 88.192 19.7493 88.0778C20.8585 87.9612 23.7983 87.9789 24.9047 88.1091C27.8452 88.4546 30.3474 89.228 31.8894 90.2681C32.484 90.6692 33.0942 91.311 33.301 91.7527L33.4782 92.1315L33.463 103.116L33.4479 114.1L33.3056 114.389C33.2273 114.548 32.991 114.861 32.7804 115.084C31.4982 116.443 28.7479 117.449 25.1404 117.877C24.4051 117.965 21.2108 118.035 20.4564 117.981L20.4564 117.981ZM25.6313 108.54C25.6205 108.512 25.2007 108.138 24.6985 107.709C24.1962 107.28 23.7636 106.909 23.7371 106.884C23.7107 106.86 23.8035 106.772 23.9434 106.69C24.0832 106.608 24.3512 106.38 24.5389 106.184C25.0876 105.608 25.3466 104.897 25.3466 103.966C25.3466 103.05 25.0673 102.31 24.508 101.745C23.9443 101.176 23.297 100.932 22.3545 100.932C20.9016 100.932 19.7858 101.78 19.4296 103.154C19.3071 103.627 19.3078 104.582 19.4309 105.001C19.7521 106.095 20.6268 106.889 21.7155 107.075C22.0839 107.138 22.1338 107.166 22.3849 107.44C22.5342 107.603 22.8405 107.929 23.0656 108.164L23.4749 108.591H24.5629C25.1614 108.591 25.6421 108.568 25.6313 108.54V108.54ZM21.9 105.494C21.638 105.357 21.539 105.251 21.3896 104.947C21.2743 104.713 21.2545 104.579 21.2533 104.025C21.252 103.462 21.2699 103.34 21.3903 103.096C21.5874 102.695 21.859 102.506 22.2791 102.475C22.8639 102.433 23.2015 102.72 23.3784 103.41C23.5953 104.255 23.3568 105.155 22.8364 105.453C22.5633 105.609 22.1561 105.627 21.9 105.494V105.494ZM17.0772 107.063C18.218 106.847 18.8656 106.184 18.8656 105.231C18.8656 104.386 18.4475 103.894 17.292 103.378C16.6306 103.083 16.391 102.898 16.391 102.681C16.391 102.502 16.6184 102.305 16.883 102.255C17.1415 102.207 17.8269 102.326 18.2317 102.49L18.571 102.627V101.876V101.125L18.2027 101.043C17.9751 100.993 17.4969 100.962 16.9507 100.964C16.177 100.964 16.0255 100.983 15.7344 101.098C14.8839 101.436 14.4803 102.011 14.4868 102.876C14.4928 103.686 14.9201 104.191 15.9835 104.646C16.6109 104.914 16.8624 105.118 16.8624 105.359C16.8624 105.872 16.0079 105.935 15.1033 105.489C14.8556 105.367 14.633 105.257 14.6087 105.245C14.5844 105.233 14.5645 105.584 14.5645 106.025C14.5645 106.823 14.5654 106.827 14.7099 106.882C15.2541 107.089 16.4569 107.181 17.0772 107.063ZM30.1189 106.323V105.645H29.0879H28.0568V103.318V100.991H27.1436H26.2303V103.996V107H28.1746H30.1189V106.323ZM23.7558 94.4494C25.5705 94.3235 26.9309 94.0859 28.1279 93.6856C29.3205 93.2869 30.025 92.8044 30.1826 92.2785C30.2433 92.0758 30.2389 91.9989 30.1541 91.7767C29.7736 90.7805 27.6482 90.0151 24.4006 89.7048C23.0113 89.572 20.4848 89.615 19.1602 89.794C17.1391 90.0671 15.4988 90.5743 14.7695 91.1518C13.2941 92.3201 14.8543 93.605 18.4826 94.2098C20.0558 94.4721 22.0941 94.5647 23.7558 94.4494H23.7558Z" fill="#00BCF2"/>
</svg>
