<svg width="43" height="34" viewBox="0 0 43 34" fill="none" xmlns="http://www.w3.org/2000/svg">
<path d="M21.1716 7.4623L18.3359 7.65419C16.5023 5.47946 11.364 0 6.24701 0C6.24701 0 2.0468 6.31097 6.16173 14.7327C4.98908 16.5023 4.26417 17.4191 4.11493 19.5299L0 20.1482L0.447738 22.2377L4.20021 21.6833L4.4987 23.1971L1.15133 25.2013L2.15341 27.0988L5.24493 25.2013C7.69683 30.4035 13.9012 33.0473 21.1716 33.0473C28.442 33.0473 34.6464 30.4035 37.0983 25.2013L40.1898 27.0988L41.1919 25.2013L37.8445 23.1971L38.143 21.6833L41.8955 22.2377L42.3432 20.1482L38.2283 19.5299C38.0791 17.4191 37.3541 16.5023 36.1815 14.7327C40.2964 6.31097 36.0962 0 36.0962 0C30.9792 0 25.8409 5.47946 24.0073 7.65419L21.1716 7.4623ZM14.7754 13.8586C15.3408 13.8586 15.8831 14.0832 16.283 14.483C16.6828 14.8829 16.9074 15.4252 16.9074 15.9906C16.9074 16.5561 16.6828 17.0984 16.283 17.4983C15.8831 17.8981 15.3408 18.1227 14.7754 18.1227C14.2099 18.1227 13.6676 17.8981 13.2677 17.4983C12.8679 17.0984 12.6433 16.5561 12.6433 15.9906C12.6433 15.4252 12.8679 14.8829 13.2677 14.483C13.6676 14.0832 14.2099 13.8586 14.7754 13.8586M27.5679 13.8586C28.1333 13.8586 28.6756 14.0832 29.0755 14.483C29.4753 14.8829 29.7 15.4252 29.7 15.9906C29.7 16.5561 29.4753 17.0984 29.0755 17.4983C28.6756 17.8981 28.1333 18.1227 27.5679 18.1227C27.0024 18.1227 26.4601 17.8981 26.0603 17.4983C25.6604 17.0984 25.4358 16.5561 25.4358 15.9906C25.4358 15.4252 25.6604 14.8829 26.0603 14.483C26.4601 14.0832 27.0024 13.8586 27.5679 13.8586M19.0395 20.2548H23.3037L21.8112 23.2184C22.2377 24.5829 23.4316 25.585 24.9028 25.585C25.751 25.585 26.5644 25.2481 27.1642 24.6483C27.7639 24.0486 28.1009 23.2351 28.1009 22.3869H29.1669C29.1669 23.5178 28.7177 24.6024 27.918 25.4021C27.1183 26.2018 26.0337 26.6511 24.9028 26.6511C23.3037 26.6511 21.9178 25.7769 21.1716 24.519C20.4254 25.7769 19.0395 26.6511 17.4405 26.6511C16.3095 26.6511 15.2249 26.2018 14.4252 25.4021C13.6256 24.6024 13.1763 23.5178 13.1763 22.3869H14.2423C14.2423 23.2351 14.5793 24.0486 15.179 24.6483C15.7788 25.2481 16.5923 25.585 17.4405 25.585C18.9116 25.585 20.1056 24.5829 20.532 23.2184L19.0395 20.2548Z" fill="#5671A6"/>
</svg>
