<svg width="113" height="24" viewBox="0 0 113 24" fill="none" xmlns="http://www.w3.org/2000/svg">
<path d="M24.4505 6.69535L23.257 6.03895L12.5158 0.071608H12.3845C12.3114 0.0406718 12.2355 0.0166967 12.1578 0H11.931H11.7162C11.6347 0.0167076 11.5548 0.0406723 11.4775 0.071608H11.3462L0.605026 6.03895C0.421354 6.14304 0.26858 6.29399 0.162291 6.4764C0.0560013 6.6588 0 6.86614 0 7.07726C0 7.28838 0.0560013 7.49572 0.162291 7.67813C0.26858 7.86054 0.421354 8.01149 0.605026 8.11558L3.57676 9.76256V15.4196C3.57676 16.3692 3.95398 17.2799 4.62544 17.9513C5.29689 18.6228 6.20758 19 7.15716 19H16.7049C17.6545 19 18.5652 18.6228 19.2366 17.9513C19.9081 17.2799 20.2853 16.3692 20.2853 15.4196V9.76256L22.6722 8.42588V11.8392C22.6722 12.1557 22.798 12.4593 23.0218 12.6831C23.2456 12.9069 23.5492 13.0327 23.8657 13.0327C24.1822 13.0327 24.4858 12.9069 24.7096 12.6831C24.9334 12.4593 25.0592 12.1557 25.0592 11.8392V7.73367C25.0588 7.52219 25.0023 7.31461 24.8953 7.13217C24.7884 6.94972 24.6349 6.79898 24.4505 6.69535V6.69535ZM17.8984 15.4196C17.8984 15.7361 17.7726 16.0397 17.5488 16.2635C17.325 16.4873 17.0214 16.6131 16.7049 16.6131H7.15716C6.84063 16.6131 6.53707 16.4873 6.31325 16.2635C6.08943 16.0397 5.96369 15.7361 5.96369 15.4196V11.0873L11.3462 14.071L11.5253 14.1426H11.6327C11.7317 14.1551 11.832 14.1551 11.931 14.1426C12.0301 14.1551 12.1303 14.1551 12.2294 14.1426H12.3368C12.4002 14.1292 12.4607 14.105 12.5158 14.071L17.8984 11.0873V15.4196ZM11.931 11.6721L3.64837 7.06533L11.931 2.45854L20.2137 7.06533L11.931 11.6721Z" fill="#383838"/>
<path d="M33.4031 8.64V11.44H37.1631V13.216H33.4031V16.176H37.6431V18H31.1631V6.816H37.6431V8.64H33.4031ZM39.1027 13.536C39.1027 12.64 39.2787 11.8453 39.6307 11.152C39.9934 10.4587 40.484 9.92533 41.1027 9.552C41.7214 9.17867 42.4094 8.992 43.1667 8.992C43.7427 8.992 44.292 9.12 44.8147 9.376C45.3374 9.62133 45.7534 9.952 46.0627 10.368V6.16H48.3347V18H46.0627V16.688C45.7854 17.1253 45.396 17.4773 44.8947 17.744C44.3934 18.0107 43.812 18.144 43.1507 18.144C42.404 18.144 41.7214 17.952 41.1027 17.568C40.484 17.184 39.9934 16.6453 39.6307 15.952C39.2787 15.248 39.1027 14.4427 39.1027 13.536ZM46.0787 13.568C46.0787 13.024 45.972 12.56 45.7587 12.176C45.5454 11.7813 45.2574 11.4827 44.8947 11.28C44.532 11.0667 44.1427 10.96 43.7267 10.96C43.3107 10.96 42.9267 11.0613 42.5747 11.264C42.2227 11.4667 41.9347 11.7653 41.7107 12.16C41.4974 12.544 41.3907 13.0027 41.3907 13.536C41.3907 14.0693 41.4974 14.5387 41.7107 14.944C41.9347 15.3387 42.2227 15.6427 42.5747 15.856C42.9374 16.0693 43.3214 16.176 43.7267 16.176C44.1427 16.176 44.532 16.0747 44.8947 15.872C45.2574 15.6587 45.5454 15.36 45.7587 14.976C45.972 14.5813 46.0787 14.112 46.0787 13.568ZM58.8905 9.136V18H56.6345V16.88C56.3465 17.264 55.9678 17.568 55.4985 17.792C55.0398 18.0053 54.5385 18.112 53.9945 18.112C53.3011 18.112 52.6878 17.968 52.1545 17.68C51.6211 17.3813 51.1998 16.9493 50.8905 16.384C50.5918 15.808 50.4425 15.1253 50.4425 14.336V9.136H52.6825V14.016C52.6825 14.72 52.8585 15.264 53.2105 15.648C53.5625 16.0213 54.0425 16.208 54.6505 16.208C55.2691 16.208 55.7545 16.0213 56.1065 15.648C56.4585 15.264 56.6345 14.72 56.6345 14.016V9.136H58.8905ZM60.5246 13.568C60.5246 12.6507 60.7112 11.8507 61.0846 11.168C61.4579 10.4747 61.9752 9.94133 62.6366 9.568C63.2979 9.184 64.0552 8.992 64.9086 8.992C66.0072 8.992 66.9139 9.26933 67.6286 9.824C68.3539 10.368 68.8392 11.136 69.0846 12.128H66.6686C66.5406 11.744 66.3219 11.4453 66.0126 11.232C65.7139 11.008 65.3406 10.896 64.8926 10.896C64.2526 10.896 63.7459 11.1307 63.3726 11.6C62.9992 12.0587 62.8126 12.7147 62.8126 13.568C62.8126 14.4107 62.9992 15.0667 63.3726 15.536C63.7459 15.9947 64.2526 16.224 64.8926 16.224C65.7992 16.224 66.3912 15.8187 66.6686 15.008H69.0846C68.8392 15.968 68.3539 16.7307 67.6286 17.296C66.9032 17.8613 65.9966 18.144 64.9086 18.144C64.0552 18.144 63.2979 17.9573 62.6366 17.584C61.9752 17.2 61.4579 16.6667 61.0846 15.984C60.7112 15.2907 60.5246 14.4853 60.5246 13.568ZM70.1496 13.536C70.1496 12.64 70.3256 11.8453 70.6776 11.152C71.0402 10.4587 71.5256 9.92533 72.1336 9.552C72.7522 9.17867 73.4402 8.992 74.1976 8.992C74.8589 8.992 75.4349 9.12533 75.9256 9.392C76.4269 9.65867 76.8269 9.99467 77.1256 10.4V9.136H79.3816V18H77.1256V16.704C76.8376 17.12 76.4376 17.4667 75.9256 17.744C75.4242 18.0107 74.8429 18.144 74.1816 18.144C73.4349 18.144 72.7522 17.952 72.1336 17.568C71.5256 17.184 71.0402 16.6453 70.6776 15.952C70.3256 15.248 70.1496 14.4427 70.1496 13.536ZM77.1256 13.568C77.1256 13.024 77.0189 12.56 76.8056 12.176C76.5922 11.7813 76.3042 11.4827 75.9416 11.28C75.5789 11.0667 75.1896 10.96 74.7736 10.96C74.3576 10.96 73.9736 11.0613 73.6216 11.264C73.2696 11.4667 72.9816 11.7653 72.7576 12.16C72.5442 12.544 72.4376 13.0027 72.4376 13.536C72.4376 14.0693 72.5442 14.5387 72.7576 14.944C72.9816 15.3387 73.2696 15.6427 73.6216 15.856C73.9842 16.0693 74.3682 16.176 74.7736 16.176C75.1896 16.176 75.5789 16.0747 75.9416 15.872C76.3042 15.6587 76.5922 15.36 76.8056 14.976C77.0189 14.5813 77.1256 14.112 77.1256 13.568ZM84.1773 10.976V15.264C84.1773 15.5627 84.2467 15.7813 84.3853 15.92C84.5347 16.048 84.78 16.112 85.1213 16.112H86.1613V18H84.7533C82.8653 18 81.9213 17.0827 81.9213 15.248V10.976H80.8653V9.136H81.9213V6.944H84.1773V9.136H86.1613V10.976H84.1773ZM88.9085 8.08C88.5138 8.08 88.1831 7.95733 87.9165 7.712C87.6605 7.456 87.5325 7.14133 87.5325 6.768C87.5325 6.39467 87.6605 6.08533 87.9165 5.84C88.1831 5.584 88.5138 5.456 88.9085 5.456C89.3031 5.456 89.6285 5.584 89.8845 5.84C90.1511 6.08533 90.2845 6.39467 90.2845 6.768C90.2845 7.14133 90.1511 7.456 89.8845 7.712C89.6285 7.95733 89.3031 8.08 88.9085 8.08ZM90.0125 9.136V18H87.7725V9.136H90.0125ZM96.1616 18.144C95.3082 18.144 94.5402 17.9573 93.8576 17.584C93.1749 17.2 92.6362 16.6613 92.2416 15.968C91.8576 15.2747 91.6656 14.4747 91.6656 13.568C91.6656 12.6613 91.8629 11.8613 92.2576 11.168C92.6629 10.4747 93.2122 9.94133 93.9056 9.568C94.5989 9.184 95.3722 8.992 96.2256 8.992C97.0789 8.992 97.8522 9.184 98.5456 9.568C99.2389 9.94133 99.7829 10.4747 100.178 11.168C100.583 11.8613 100.786 12.6613 100.786 13.568C100.786 14.4747 100.578 15.2747 100.162 15.968C99.7562 16.6613 99.2016 17.2 98.4976 17.584C97.8042 17.9573 97.0256 18.144 96.1616 18.144ZM96.1616 16.192C96.5669 16.192 96.9456 16.096 97.2976 15.904C97.6602 15.7013 97.9482 15.4027 98.1616 15.008C98.3749 14.6133 98.4816 14.1333 98.4816 13.568C98.4816 12.7253 98.2576 12.08 97.8096 11.632C97.3722 11.1733 96.8336 10.944 96.1936 10.944C95.5536 10.944 95.0149 11.1733 94.5776 11.632C94.1509 12.08 93.9376 12.7253 93.9376 13.568C93.9376 14.4107 94.1456 15.0613 94.5616 15.52C94.9882 15.968 95.5216 16.192 96.1616 16.192ZM107.341 9.008C108.397 9.008 109.25 9.344 109.901 10.016C110.551 10.6773 110.877 11.6053 110.877 12.8V18H108.637V13.104C108.637 12.4 108.461 11.8613 108.109 11.488C107.757 11.104 107.277 10.912 106.669 10.912C106.05 10.912 105.559 11.104 105.197 11.488C104.845 11.8613 104.669 12.4 104.669 13.104V18H102.429V9.136H104.669V10.24C104.967 9.856 105.346 9.55733 105.805 9.344C106.274 9.12 106.786 9.008 107.341 9.008Z" fill="#383838"/>
</svg>
