<svg width="170" height="150" viewBox="0 0 170 150" fill="none" xmlns="http://www.w3.org/2000/svg">
<g clip-path="url(#clip0_333_2600)">
<path d="M0 41.7275C83 12.5 135 54 170 41.7275V150H0V41.7275Z" fill="#616161"/>
<path d="M0 52.0834C44 69 104 6 170 52.0834V150H0V52.0834Z" fill="#383838"/>
<path d="M18 127.832V129.64H13.344V132.504H16.912V134.28H13.344V139H11.104V127.832H18ZM20.7244 129.08C20.3297 129.08 19.999 128.957 19.7324 128.712C19.4764 128.456 19.3484 128.141 19.3484 127.768C19.3484 127.395 19.4764 127.085 19.7324 126.84C19.999 126.584 20.3297 126.456 20.7244 126.456C21.119 126.456 21.4444 126.584 21.7004 126.84C21.967 127.085 22.1004 127.395 22.1004 127.768C22.1004 128.141 21.967 128.456 21.7004 128.712C21.4444 128.957 21.119 129.08 20.7244 129.08ZM21.8284 130.136V139H19.5884V130.136H21.8284ZM27.5135 129.992C28.1748 129.992 28.7562 130.125 29.2575 130.392C29.7588 130.648 30.1535 130.984 30.4415 131.4V130.136H32.6975V139.064C32.6975 139.885 32.5322 140.616 32.2015 141.256C31.8708 141.907 31.3748 142.419 30.7135 142.792C30.0522 143.176 29.2522 143.368 28.3135 143.368C27.0548 143.368 26.0202 143.075 25.2095 142.488C24.4095 141.901 23.9562 141.101 23.8495 140.088H26.0735C26.1908 140.493 26.4415 140.813 26.8255 141.048C27.2202 141.293 27.6948 141.416 28.2495 141.416C28.9002 141.416 29.4282 141.219 29.8335 140.824C30.2388 140.44 30.4415 139.853 30.4415 139.064V137.688C30.1535 138.104 29.7535 138.451 29.2415 138.728C28.7402 139.005 28.1642 139.144 27.5135 139.144C26.7668 139.144 26.0842 138.952 25.4655 138.568C24.8468 138.184 24.3562 137.645 23.9935 136.952C23.6415 136.248 23.4655 135.443 23.4655 134.536C23.4655 133.64 23.6415 132.845 23.9935 132.152C24.3562 131.459 24.8415 130.925 25.4495 130.552C26.0682 130.179 26.7562 129.992 27.5135 129.992ZM30.4415 134.568C30.4415 134.024 30.3348 133.56 30.1215 133.176C29.9082 132.781 29.6202 132.483 29.2575 132.28C28.8948 132.067 28.5055 131.96 28.0895 131.96C27.6735 131.96 27.2895 132.061 26.9375 132.264C26.5855 132.467 26.2975 132.765 26.0735 133.16C25.8602 133.544 25.7535 134.003 25.7535 134.536C25.7535 135.069 25.8602 135.539 26.0735 135.944C26.2975 136.339 26.5855 136.643 26.9375 136.856C27.3002 137.069 27.6842 137.176 28.0895 137.176C28.5055 137.176 28.8948 137.075 29.2575 136.872C29.6202 136.659 29.9082 136.36 30.1215 135.976C30.3348 135.581 30.4415 135.112 30.4415 134.568ZM45.8933 130.008C46.9813 130.008 47.8559 130.344 48.5173 131.016C49.1893 131.677 49.5253 132.605 49.5253 133.8V139H47.2853V134.104C47.2853 133.411 47.1093 132.883 46.7573 132.52C46.4053 132.147 45.9253 131.96 45.3173 131.96C44.7093 131.96 44.2239 132.147 43.8613 132.52C43.5093 132.883 43.3333 133.411 43.3333 134.104V139H41.0933V134.104C41.0933 133.411 40.9173 132.883 40.5653 132.52C40.2133 132.147 39.7333 131.96 39.1253 131.96C38.5066 131.96 38.0159 132.147 37.6533 132.52C37.3013 132.883 37.1253 133.411 37.1253 134.104V139H34.8853V130.136H37.1253V131.208C37.4133 130.835 37.7813 130.541 38.2293 130.328C38.6879 130.115 39.1893 130.008 39.7333 130.008C40.4266 130.008 41.0453 130.157 41.5893 130.456C42.1333 130.744 42.5546 131.16 42.8533 131.704C43.1413 131.192 43.5573 130.781 44.1013 130.472C44.6559 130.163 45.2533 130.008 45.8933 130.008ZM51.0749 134.536C51.0749 133.64 51.2509 132.845 51.6029 132.152C51.9655 131.459 52.4509 130.925 53.0589 130.552C53.6775 130.179 54.3655 129.992 55.1229 129.992C55.7842 129.992 56.3602 130.125 56.8509 130.392C57.3522 130.659 57.7522 130.995 58.0509 131.4V130.136H60.3069V139H58.0509V137.704C57.7629 138.12 57.3629 138.467 56.8509 138.744C56.3495 139.011 55.7682 139.144 55.1069 139.144C54.3602 139.144 53.6775 138.952 53.0589 138.568C52.4509 138.184 51.9655 137.645 51.6029 136.952C51.2509 136.248 51.0749 135.443 51.0749 134.536ZM58.0509 134.568C58.0509 134.024 57.9442 133.56 57.7309 133.176C57.5175 132.781 57.2295 132.483 56.8669 132.28C56.5042 132.067 56.1149 131.96 55.6989 131.96C55.2829 131.96 54.8989 132.061 54.5469 132.264C54.1949 132.467 53.9069 132.765 53.6829 133.16C53.4695 133.544 53.3629 134.003 53.3629 134.536C53.3629 135.069 53.4695 135.539 53.6829 135.944C53.9069 136.339 54.1949 136.643 54.5469 136.856C54.9095 137.069 55.2935 137.176 55.6989 137.176C56.1149 137.176 56.5042 137.075 56.8669 136.872C57.2295 136.659 57.5175 136.36 57.7309 135.976C57.9442 135.581 58.0509 135.112 58.0509 134.568Z" fill="white"/>
<path d="M135.608 129.032L131.352 139H129.08L133.368 129.288H127.896V127.368H135.608V129.032ZM144.79 129.272H139.606V132.008C139.83 131.731 140.15 131.507 140.566 131.336C140.982 131.155 141.424 131.064 141.894 131.064C142.747 131.064 143.446 131.251 143.99 131.624C144.534 131.997 144.928 132.477 145.174 133.064C145.419 133.64 145.542 134.259 145.542 134.92C145.542 136.147 145.19 137.133 144.486 137.88C143.792 138.627 142.8 139 141.51 139C140.294 139 139.323 138.696 138.598 138.088C137.872 137.48 137.462 136.685 137.366 135.704H139.542C139.638 136.131 139.851 136.472 140.182 136.728C140.523 136.984 140.955 137.112 141.478 137.112C142.107 137.112 142.582 136.915 142.902 136.52C143.222 136.125 143.382 135.603 143.382 134.952C143.382 134.291 143.216 133.789 142.886 133.448C142.566 133.096 142.091 132.92 141.462 132.92C141.014 132.92 140.64 133.032 140.342 133.256C140.043 133.48 139.83 133.779 139.702 134.152H137.558V127.304H144.79V129.272ZM146.99 130.2C146.99 129.389 147.225 128.755 147.694 128.296C148.174 127.837 148.788 127.608 149.534 127.608C150.281 127.608 150.889 127.837 151.358 128.296C151.838 128.755 152.078 129.389 152.078 130.2C152.078 131.021 151.838 131.661 151.358 132.12C150.889 132.579 150.281 132.808 149.534 132.808C148.788 132.808 148.174 132.579 147.694 132.12C147.225 131.661 146.99 131.021 146.99 130.2ZM157.262 127.8L150.974 139H148.798L155.07 127.8H157.262ZM149.518 128.952C148.932 128.952 148.638 129.368 148.638 130.2C148.638 131.043 148.932 131.464 149.518 131.464C149.806 131.464 150.03 131.363 150.19 131.16C150.35 130.947 150.43 130.627 150.43 130.2C150.43 129.368 150.126 128.952 149.518 128.952ZM154.014 136.584C154.014 135.763 154.249 135.128 154.718 134.68C155.198 134.221 155.812 133.992 156.558 133.992C157.305 133.992 157.908 134.221 158.366 134.68C158.836 135.128 159.07 135.763 159.07 136.584C159.07 137.405 158.836 138.045 158.366 138.504C157.908 138.963 157.305 139.192 156.558 139.192C155.801 139.192 155.188 138.963 154.718 138.504C154.249 138.045 154.014 137.405 154.014 136.584ZM156.542 135.336C155.934 135.336 155.63 135.752 155.63 136.584C155.63 137.427 155.934 137.848 156.542 137.848C157.14 137.848 157.438 137.427 157.438 136.584C157.438 135.752 157.14 135.336 156.542 135.336Z" fill="#616161"/>
<path opacity="0.25" fill-rule="evenodd" clip-rule="evenodd" d="M19.384 91H27.9935C30.9615 91 33.3775 93.64 33.3775 96.8095C33.3775 98.6623 32.5509 100.336 31.2705 101.404C32.5509 102.474 33.3775 104.146 33.3775 106.001C33.3775 109.169 30.9615 111.809 27.9935 111.809C26.7843 111.809 25.667 111.372 24.768 110.638V115.191C24.768 118.36 22.3532 121 19.384 121C16.4161 121 14 118.36 14 115.191C14 113.338 14.8266 111.665 16.107 110.596C14.8266 109.526 14 107.854 14 106.001C14 104.146 14.8266 102.474 16.107 101.404C14.8266 100.336 14 98.6623 14 96.8095C14 93.64 16.4161 91 19.384 91ZM22.6095 111.809H19.384C17.6302 111.809 16.1585 113.318 16.1585 115.191C16.1585 117.064 17.6302 118.572 19.384 118.572C21.139 118.572 22.6095 117.064 22.6095 115.191V111.809ZM24.768 106.001C24.768 104.127 26.2385 102.618 27.9935 102.618C29.7473 102.618 31.219 104.127 31.219 106.001C31.219 107.873 29.7473 109.382 27.9935 109.382C26.2385 109.382 24.768 107.873 24.768 106.001ZM19.3435 102.619C17.6069 102.641 16.1585 104.142 16.1585 106.001C16.1585 107.873 17.6302 109.382 19.384 109.382H22.6095V102.618H19.384L19.3435 102.619ZM22.6095 100.191V93.4277H19.384C17.6302 93.4277 16.1585 94.9359 16.1585 96.8095C16.1585 98.683 17.6302 100.191 19.384 100.191H22.6095ZM24.768 100.191H27.9935C29.7473 100.191 31.219 98.683 31.219 96.8095C31.219 94.9359 29.7473 93.4277 27.9935 93.4277H24.768V100.191Z" fill="#2C2C2C"/>
<g opacity="0.75">
<path d="M19 121C21.76 121 24 118.76 24 116V111H19C16.24 111 14 113.24 14 116C14 118.76 16.24 121 19 121Z" fill="#0ACF83"/>
<path d="M14 106C14 103.24 16.24 101 19 101H24V111H19C16.24 111 14 108.76 14 106Z" fill="#A259FF"/>
<path d="M14 96C14 93.24 16.24 91 19 91H24V101H19C16.24 101 14 98.76 14 96Z" fill="#F24E1E"/>
<path d="M24 91H29C31.76 91 34 93.24 34 96C34 98.76 31.76 101 29 101H24V91Z" fill="#FF7262"/>
<path d="M34 106C34 108.76 31.76 111 29 111C26.24 111 24 108.76 24 106C24 103.24 26.24 101 29 101C31.76 101 34 103.24 34 106Z" fill="#1ABCFE"/>
</g>
</g>
<defs>
<clipPath id="clip0_333_2600">
<path d="M0 5C0 2.23858 2.23858 0 5 0H165C167.761 0 170 2.23858 170 5V145C170 147.761 167.761 150 165 150H5C2.23858 150 0 147.761 0 145V5Z" fill="white"/>
</clipPath>
</defs>
</svg>

