<svg width="170" height="150" viewBox="0 0 170 150" fill="none" xmlns="http://www.w3.org/2000/svg">
<g clip-path="url(#clip0_348_2487)">
<path d="M0 72.3833C73 112 107 26 170 72.3833V150H0V72.3833Z" fill="#FAB8B8"/>
<path d="M0 90.0026C61 39.5 124.5 115 170 90.0026V150H0V90.0026Z" fill="#DE9191"/>
<path d="M19.248 131.288C19.248 131.885 19.104 132.445 18.816 132.968C18.5387 133.491 18.096 133.912 17.488 134.232C16.8907 134.552 16.1333 134.712 15.216 134.712H13.344V139H11.104V127.832H15.216C16.08 127.832 16.816 127.981 17.424 128.28C18.032 128.579 18.4853 128.989 18.784 129.512C19.0933 130.035 19.248 130.627 19.248 131.288ZM15.12 132.904C15.7387 132.904 16.1973 132.765 16.496 132.488C16.7947 132.2 16.944 131.8 16.944 131.288C16.944 130.2 16.336 129.656 15.12 129.656H13.344V132.904H15.12ZM24.7744 139.144C23.921 139.144 23.153 138.957 22.4704 138.584C21.7877 138.2 21.249 137.661 20.8544 136.968C20.4704 136.275 20.2784 135.475 20.2784 134.568C20.2784 133.661 20.4757 132.861 20.8704 132.168C21.2757 131.475 21.825 130.941 22.5184 130.568C23.2117 130.184 23.985 129.992 24.8384 129.992C25.6917 129.992 26.465 130.184 27.1584 130.568C27.8517 130.941 28.3957 131.475 28.7904 132.168C29.1957 132.861 29.3984 133.661 29.3984 134.568C29.3984 135.475 29.1904 136.275 28.7744 136.968C28.369 137.661 27.8144 138.2 27.1104 138.584C26.417 138.957 25.6384 139.144 24.7744 139.144ZM24.7744 137.192C25.1797 137.192 25.5584 137.096 25.9104 136.904C26.273 136.701 26.561 136.403 26.7744 136.008C26.9877 135.613 27.0944 135.133 27.0944 134.568C27.0944 133.725 26.8704 133.08 26.4224 132.632C25.985 132.173 25.4464 131.944 24.8064 131.944C24.1664 131.944 23.6277 132.173 23.1904 132.632C22.7637 133.08 22.5504 133.725 22.5504 134.568C22.5504 135.411 22.7584 136.061 23.1744 136.52C23.601 136.968 24.1344 137.192 24.7744 137.192ZM43.3295 130.136L40.7375 139H38.3215L36.7055 132.808L35.0895 139H32.6575L30.0495 130.136H32.3215L33.8895 136.888L35.5855 130.136H37.9535L39.6175 136.872L41.1855 130.136H43.3295ZM52.7815 134.376C52.7815 134.696 52.7602 134.984 52.7175 135.24H46.2375C46.2908 135.88 46.5148 136.381 46.9095 136.744C47.3042 137.107 47.7895 137.288 48.3655 137.288C49.1975 137.288 49.7895 136.931 50.1415 136.216H52.5575C52.3015 137.069 51.8108 137.773 51.0855 138.328C50.3602 138.872 49.4695 139.144 48.4135 139.144C47.5602 139.144 46.7922 138.957 46.1095 138.584C45.4375 138.2 44.9095 137.661 44.5255 136.968C44.1522 136.275 43.9655 135.475 43.9655 134.568C43.9655 133.651 44.1522 132.845 44.5255 132.152C44.8988 131.459 45.4215 130.925 46.0935 130.552C46.7655 130.179 47.5388 129.992 48.4135 129.992C49.2562 129.992 50.0082 130.173 50.6695 130.536C51.3415 130.899 51.8588 131.416 52.2215 132.088C52.5948 132.749 52.7815 133.512 52.7815 134.376ZM50.4615 133.736C50.4508 133.16 50.2428 132.701 49.8375 132.36C49.4322 132.008 48.9362 131.832 48.3495 131.832C47.7948 131.832 47.3255 132.003 46.9415 132.344C46.5682 132.675 46.3388 133.139 46.2535 133.736H50.4615ZM56.6565 131.512C56.9445 131.043 57.3178 130.675 57.7765 130.408C58.2458 130.141 58.7792 130.008 59.3765 130.008V132.36H58.7845C58.0805 132.36 57.5472 132.525 57.1845 132.856C56.8325 133.187 56.6565 133.763 56.6565 134.584V139H54.4165V130.136H56.6565V131.512ZM69.0293 131.288C69.0293 131.885 68.8853 132.445 68.5972 132.968C68.3199 133.491 67.8773 133.912 67.2693 134.232C66.6719 134.552 65.9146 134.712 64.9973 134.712H63.1253V139H60.8853V127.832H64.9973C65.8613 127.832 66.5973 127.981 67.2053 128.28C67.8133 128.579 68.2666 128.989 68.5653 129.512C68.8746 130.035 69.0293 130.627 69.0293 131.288ZM64.9013 132.904C65.5199 132.904 65.9786 132.765 66.2773 132.488C66.5759 132.2 66.7253 131.8 66.7253 131.288C66.7253 130.2 66.1173 129.656 64.9013 129.656H63.1253V132.904H64.9013ZM74.5556 139.144C73.7023 139.144 72.9343 138.957 72.2516 138.584C71.569 138.2 71.0303 137.661 70.6356 136.968C70.2516 136.275 70.0596 135.475 70.0596 134.568C70.0596 133.661 70.257 132.861 70.6516 132.168C71.057 131.475 71.6063 130.941 72.2996 130.568C72.993 130.184 73.7663 129.992 74.6196 129.992C75.473 129.992 76.2463 130.184 76.9396 130.568C77.633 130.941 78.177 131.475 78.5716 132.168C78.977 132.861 79.1796 133.661 79.1796 134.568C79.1796 135.475 78.9716 136.275 78.5556 136.968C78.1503 137.661 77.5956 138.2 76.8916 138.584C76.1983 138.957 75.4196 139.144 74.5556 139.144ZM74.5556 137.192C74.961 137.192 75.3396 137.096 75.6916 136.904C76.0543 136.701 76.3423 136.403 76.5556 136.008C76.769 135.613 76.8756 135.133 76.8756 134.568C76.8756 133.725 76.6516 133.08 76.2036 132.632C75.7663 132.173 75.2276 131.944 74.5876 131.944C73.9476 131.944 73.409 132.173 72.9716 132.632C72.545 133.08 72.3316 133.725 72.3316 134.568C72.3316 135.411 72.5396 136.061 72.9556 136.52C73.3823 136.968 73.9156 137.192 74.5556 137.192ZM81.9588 129.08C81.5641 129.08 81.2334 128.957 80.9668 128.712C80.7108 128.456 80.5828 128.141 80.5828 127.768C80.5828 127.395 80.7108 127.085 80.9668 126.84C81.2334 126.584 81.5641 126.456 81.9588 126.456C82.3534 126.456 82.6788 126.584 82.9348 126.84C83.2014 127.085 83.3348 127.395 83.3348 127.768C83.3348 128.141 83.2014 128.456 82.9348 128.712C82.6788 128.957 82.3534 129.08 81.9588 129.08ZM83.0628 130.136V139H80.8228V130.136H83.0628ZM90.1879 130.008C91.2439 130.008 92.0972 130.344 92.7479 131.016C93.3985 131.677 93.7239 132.605 93.7239 133.8V139H91.4839V134.104C91.4839 133.4 91.3079 132.861 90.9559 132.488C90.6039 132.104 90.1239 131.912 89.5159 131.912C88.8972 131.912 88.4065 132.104 88.0439 132.488C87.6919 132.861 87.5159 133.4 87.5159 134.104V139H85.2759V130.136H87.5159V131.24C87.8145 130.856 88.1932 130.557 88.6519 130.344C89.1212 130.12 89.6332 130.008 90.1879 130.008ZM98.462 131.976V136.264C98.462 136.563 98.5313 136.781 98.67 136.92C98.8193 137.048 99.0647 137.112 99.406 137.112H100.446V139H99.038C97.15 139 96.206 138.083 96.206 136.248V131.976H95.15V130.136H96.206V127.944H98.462V130.136H100.446V131.976H98.462Z" fill="#383838"/>
<path d="M134.735 129.272H129.551V132.008C129.775 131.731 130.095 131.507 130.511 131.336C130.927 131.155 131.37 131.064 131.839 131.064C132.692 131.064 133.391 131.251 133.935 131.624C134.479 131.997 134.874 132.477 135.119 133.064C135.364 133.64 135.487 134.259 135.487 134.92C135.487 136.147 135.135 137.133 134.431 137.88C133.738 138.627 132.746 139 131.455 139C130.239 139 129.268 138.696 128.543 138.088C127.818 137.48 127.407 136.685 127.311 135.704H129.487C129.583 136.131 129.796 136.472 130.127 136.728C130.468 136.984 130.9 137.112 131.423 137.112C132.052 137.112 132.527 136.915 132.847 136.52C133.167 136.125 133.327 135.603 133.327 134.952C133.327 134.291 133.162 133.789 132.831 133.448C132.511 133.096 132.036 132.92 131.407 132.92C130.959 132.92 130.586 133.032 130.287 133.256C129.988 133.48 129.775 133.779 129.647 134.152H127.503V127.304H134.735V129.272ZM137.192 133.016C137.192 131.171 137.522 129.725 138.184 128.68C138.856 127.635 139.965 127.112 141.512 127.112C143.058 127.112 144.162 127.635 144.824 128.68C145.496 129.725 145.832 131.171 145.832 133.016C145.832 134.872 145.496 136.328 144.824 137.384C144.162 138.44 143.058 138.968 141.512 138.968C139.965 138.968 138.856 138.44 138.184 137.384C137.522 136.328 137.192 134.872 137.192 133.016ZM143.624 133.016C143.624 132.227 143.57 131.565 143.464 131.032C143.368 130.488 143.165 130.045 142.856 129.704C142.557 129.363 142.109 129.192 141.512 129.192C140.914 129.192 140.461 129.363 140.152 129.704C139.853 130.045 139.65 130.488 139.544 131.032C139.448 131.565 139.4 132.227 139.4 133.016C139.4 133.827 139.448 134.509 139.544 135.064C139.64 135.608 139.842 136.051 140.152 136.392C140.461 136.723 140.914 136.888 141.512 136.888C142.109 136.888 142.562 136.723 142.872 136.392C143.181 136.051 143.384 135.608 143.48 135.064C143.576 134.509 143.624 133.827 143.624 133.016ZM147.28 130.2C147.28 129.389 147.514 128.755 147.984 128.296C148.464 127.837 149.077 127.608 149.824 127.608C150.57 127.608 151.178 127.837 151.648 128.296C152.128 128.755 152.368 129.389 152.368 130.2C152.368 131.021 152.128 131.661 151.648 132.12C151.178 132.579 150.57 132.808 149.824 132.808C149.077 132.808 148.464 132.579 147.984 132.12C147.514 131.661 147.28 131.021 147.28 130.2ZM157.552 127.8L151.264 139H149.088L155.36 127.8H157.552ZM149.808 128.952C149.221 128.952 148.928 129.368 148.928 130.2C148.928 131.043 149.221 131.464 149.808 131.464C150.096 131.464 150.32 131.363 150.48 131.16C150.64 130.947 150.72 130.627 150.72 130.2C150.72 129.368 150.416 128.952 149.808 128.952ZM154.304 136.584C154.304 135.763 154.538 135.128 155.008 134.68C155.488 134.221 156.101 133.992 156.848 133.992C157.594 133.992 158.197 134.221 158.656 134.68C159.125 135.128 159.36 135.763 159.36 136.584C159.36 137.405 159.125 138.045 158.656 138.504C158.197 138.963 157.594 139.192 156.848 139.192C156.09 139.192 155.477 138.963 155.008 138.504C154.538 138.045 154.304 137.405 154.304 136.584ZM156.832 135.336C156.224 135.336 155.92 135.752 155.92 136.584C155.92 137.427 156.224 137.848 156.832 137.848C157.429 137.848 157.728 137.427 157.728 136.584C157.728 135.752 157.429 135.336 156.832 135.336Z" fill="#616161"/>
</g>
<defs>
<clipPath id="clip0_348_2487">
<path d="M0 5C0 2.23858 2.23858 0 5 0H165C167.761 0 170 2.23858 170 5V145C170 147.761 167.761 150 165 150H5C2.23858 150 0 147.761 0 145V5Z" fill="white"/>
</clipPath>
</defs>
</svg>
