<svg width="170" height="150" viewBox="0 0 170 150" fill="none" xmlns="http://www.w3.org/2000/svg">
<path d="M0 43.1621C49 66.7035 118 18.6951 170 43.1621V150H0V43.1621Z" fill="#FFAF6B"/>
<path d="M0 52.7291C72 24.1211 131 69.3718 170 52.7291V150H0V52.7291Z" fill="#FF9857"/>
<path d="M17.616 127.832V135.672C17.616 136.76 17.3013 137.608 16.672 138.216C16.0427 138.813 15.2 139.112 14.144 139.112C13.0773 139.112 12.2133 138.803 11.552 138.184C10.9013 137.565 10.576 136.701 10.576 135.592H12.816C12.8267 136.072 12.9387 136.445 13.152 136.712C13.376 136.979 13.696 137.112 14.112 137.112C14.5173 137.112 14.8267 136.984 15.04 136.728C15.2533 136.472 15.36 136.12 15.36 135.672V127.832H17.616ZM19.653 134.536C19.653 133.64 19.829 132.845 20.181 132.152C20.5437 131.459 21.029 130.925 21.637 130.552C22.2557 130.179 22.9437 129.992 23.701 129.992C24.3623 129.992 24.9383 130.125 25.429 130.392C25.9303 130.659 26.3303 130.995 26.629 131.4V130.136H28.885V139H26.629V137.704C26.341 138.12 25.941 138.467 25.429 138.744C24.9277 139.011 24.3463 139.144 23.685 139.144C22.9383 139.144 22.2557 138.952 21.637 138.568C21.029 138.184 20.5437 137.645 20.181 136.952C19.829 136.248 19.653 135.443 19.653 134.536ZM26.629 134.568C26.629 134.024 26.5223 133.56 26.309 133.176C26.0957 132.781 25.8077 132.483 25.445 132.28C25.0823 132.067 24.693 131.96 24.277 131.96C23.861 131.96 23.477 132.061 23.125 132.264C22.773 132.467 22.485 132.765 22.261 133.16C22.0477 133.544 21.941 134.003 21.941 134.536C21.941 135.069 22.0477 135.539 22.261 135.944C22.485 136.339 22.773 136.643 23.125 136.856C23.4877 137.069 23.8717 137.176 24.277 137.176C24.693 137.176 25.0823 137.075 25.445 136.872C25.8077 136.659 26.0957 136.36 26.309 135.976C26.5223 135.581 26.629 135.112 26.629 134.568ZM34.7688 136.936L37.0088 130.136H39.3928L36.1128 139H33.3928L30.1288 130.136H32.5288L34.7688 136.936ZM40.0749 134.536C40.0749 133.64 40.2509 132.845 40.6029 132.152C40.9655 131.459 41.4509 130.925 42.0589 130.552C42.6775 130.179 43.3655 129.992 44.1229 129.992C44.7842 129.992 45.3602 130.125 45.8509 130.392C46.3522 130.659 46.7522 130.995 47.0509 131.4V130.136H49.3069V139H47.0509V137.704C46.7629 138.12 46.3629 138.467 45.8509 138.744C45.3495 139.011 44.7682 139.144 44.1069 139.144C43.3602 139.144 42.6775 138.952 42.0589 138.568C41.4509 138.184 40.9655 137.645 40.6029 136.952C40.2509 136.248 40.0749 135.443 40.0749 134.536ZM47.0509 134.568C47.0509 134.024 46.9442 133.56 46.7309 133.176C46.5175 132.781 46.2295 132.483 45.8669 132.28C45.5042 132.067 45.1149 131.96 44.6989 131.96C44.2829 131.96 43.8989 132.061 43.5469 132.264C43.1949 132.467 42.9069 132.765 42.6829 133.16C42.4695 133.544 42.3629 134.003 42.3629 134.536C42.3629 135.069 42.4695 135.539 42.6829 135.944C42.9069 136.339 43.1949 136.643 43.5469 136.856C43.9095 137.069 44.2935 137.176 44.6989 137.176C45.1149 137.176 45.5042 137.075 45.8669 136.872C46.2295 136.659 46.5175 136.36 46.7309 135.976C46.9442 135.581 47.0509 135.112 47.0509 134.568Z" fill="#383838"/>
<path d="M128.855 132.824C127.788 132.269 127.255 131.411 127.255 130.248C127.255 129.672 127.399 129.149 127.687 128.68C127.985 128.2 128.428 127.821 129.015 127.544C129.612 127.256 130.337 127.112 131.191 127.112C132.044 127.112 132.764 127.256 133.351 127.544C133.948 127.821 134.391 128.2 134.679 128.68C134.977 129.149 135.127 129.672 135.127 130.248C135.127 130.835 134.983 131.352 134.695 131.8C134.407 132.237 134.023 132.579 133.543 132.824C134.129 133.08 134.588 133.453 134.919 133.944C135.249 134.435 135.415 135.016 135.415 135.688C135.415 136.413 135.228 137.048 134.855 137.592C134.492 138.125 133.991 138.536 133.351 138.824C132.711 139.112 131.991 139.256 131.191 139.256C130.391 139.256 129.671 139.112 129.031 138.824C128.401 138.536 127.9 138.125 127.527 137.592C127.164 137.048 126.983 136.413 126.983 135.688C126.983 135.016 127.148 134.435 127.479 133.944C127.809 133.443 128.268 133.069 128.855 132.824ZM132.951 130.568C132.951 130.045 132.791 129.64 132.471 129.352C132.161 129.064 131.735 128.92 131.191 128.92C130.657 128.92 130.231 129.064 129.911 129.352C129.601 129.64 129.447 130.051 129.447 130.584C129.447 131.064 129.607 131.448 129.927 131.736C130.257 132.024 130.679 132.168 131.191 132.168C131.703 132.168 132.124 132.024 132.455 131.736C132.785 131.437 132.951 131.048 132.951 130.568ZM131.191 133.8C130.583 133.8 130.087 133.955 129.703 134.264C129.329 134.573 129.143 135.016 129.143 135.592C129.143 136.125 129.324 136.563 129.687 136.904C130.06 137.235 130.561 137.4 131.191 137.4C131.82 137.4 132.316 137.229 132.679 136.888C133.041 136.547 133.223 136.115 133.223 135.592C133.223 135.027 133.036 134.589 132.663 134.28C132.289 133.96 131.799 133.8 131.191 133.8ZM137.184 133.016C137.184 131.171 137.515 129.725 138.176 128.68C138.848 127.635 139.957 127.112 141.504 127.112C143.051 127.112 144.155 127.635 144.816 128.68C145.488 129.725 145.824 131.171 145.824 133.016C145.824 134.872 145.488 136.328 144.816 137.384C144.155 138.44 143.051 138.968 141.504 138.968C139.957 138.968 138.848 138.44 138.176 137.384C137.515 136.328 137.184 134.872 137.184 133.016ZM143.616 133.016C143.616 132.227 143.563 131.565 143.456 131.032C143.36 130.488 143.157 130.045 142.848 129.704C142.549 129.363 142.101 129.192 141.504 129.192C140.907 129.192 140.453 129.363 140.144 129.704C139.845 130.045 139.643 130.488 139.536 131.032C139.44 131.565 139.392 132.227 139.392 133.016C139.392 133.827 139.44 134.509 139.536 135.064C139.632 135.608 139.835 136.051 140.144 136.392C140.453 136.723 140.907 136.888 141.504 136.888C142.101 136.888 142.555 136.723 142.864 136.392C143.173 136.051 143.376 135.608 143.472 135.064C143.568 134.509 143.616 133.827 143.616 133.016ZM147.272 130.2C147.272 129.389 147.506 128.755 147.976 128.296C148.456 127.837 149.069 127.608 149.816 127.608C150.562 127.608 151.17 127.837 151.64 128.296C152.12 128.755 152.36 129.389 152.36 130.2C152.36 131.021 152.12 131.661 151.64 132.12C151.17 132.579 150.562 132.808 149.816 132.808C149.069 132.808 148.456 132.579 147.976 132.12C147.506 131.661 147.272 131.021 147.272 130.2ZM157.544 127.8L151.256 139H149.08L155.352 127.8H157.544ZM149.8 128.952C149.213 128.952 148.92 129.368 148.92 130.2C148.92 131.043 149.213 131.464 149.8 131.464C150.088 131.464 150.312 131.363 150.472 131.16C150.632 130.947 150.712 130.627 150.712 130.2C150.712 129.368 150.408 128.952 149.8 128.952ZM154.296 136.584C154.296 135.763 154.53 135.128 155 134.68C155.48 134.221 156.093 133.992 156.84 133.992C157.586 133.992 158.189 134.221 158.648 134.68C159.117 135.128 159.352 135.763 159.352 136.584C159.352 137.405 159.117 138.045 158.648 138.504C158.189 138.963 157.586 139.192 156.84 139.192C156.082 139.192 155.469 138.963 155 138.504C154.53 138.045 154.296 137.405 154.296 136.584ZM156.824 135.336C156.216 135.336 155.912 135.752 155.912 136.584C155.912 137.427 156.216 137.848 156.824 137.848C157.421 137.848 157.72 137.427 157.72 136.584C157.72 135.752 157.421 135.336 156.824 135.336Z" fill="#616161"/>
<path d="M17.1254 113.2C17.1254 113.2 15.9797 113.867 17.9418 114.092C20.3192 114.364 21.5341 114.325 24.1533 113.83C24.1533 113.83 24.8433 114.261 25.8051 114.635C19.9315 117.151 12.5126 114.489 17.1254 113.2ZM16.4072 109.916C16.4072 109.916 15.1219 110.868 17.0857 111.071C19.6253 111.333 21.6305 111.355 25.1019 110.686C25.1019 110.686 25.5808 111.173 26.3353 111.439C19.2353 113.515 11.3273 111.602 16.4072 109.916V109.916Z" fill="#0074BD"/>
<path d="M22.4572 104.344C23.9052 106.011 22.0775 107.509 22.0775 107.509C22.0775 107.509 25.752 105.613 24.0648 103.237C22.4884 101.022 21.28 99.9222 27.8225 96.1278C27.8225 96.128 17.5527 98.6922 22.4572 104.344V104.344Z" fill="#EA2D2E"/>
<path d="M30.2251 115.63C30.2251 115.63 31.0733 116.329 29.2907 116.87C25.9015 117.896 15.1816 118.206 12.2043 116.911C11.1345 116.445 13.1413 115.799 13.7727 115.663C14.431 115.52 14.8069 115.546 14.8069 115.546C13.6165 114.708 7.11301 117.193 11.5039 117.905C23.4777 119.846 33.3305 117.031 30.2251 115.63V115.63ZM17.677 106.513C17.677 106.513 12.2247 107.808 15.7463 108.279C17.2335 108.478 20.1969 108.432 22.959 108.2C25.2158 108.011 27.4805 107.606 27.4805 107.606C27.4805 107.606 26.6854 107.947 26.1096 108.339C20.5718 109.796 9.87639 109.118 12.9558 107.629C15.5591 106.369 17.677 106.513 17.677 106.513V106.513ZM27.4579 111.98C33.0868 109.055 30.4839 106.245 28.6673 106.624C28.2231 106.716 28.0239 106.797 28.0239 106.797C28.0239 106.797 28.1892 106.537 28.5045 106.426C32.0983 105.163 34.8617 110.152 27.3454 112.128C27.3454 112.127 27.4317 112.049 27.4579 111.98V111.98Z" fill="#0074BD"/>
<path d="M24.0649 90C24.0649 90 27.1815 93.1186 21.108 97.9126C16.2374 101.759 19.9974 103.952 21.1063 106.459C18.2629 103.894 16.1773 101.635 17.5763 99.5334C19.6307 96.4489 25.3221 94.9528 24.0649 90V90Z" fill="#EA2D2E"/>
<path d="M18.2302 119.906C23.632 120.251 31.9293 119.714 32.1257 117.157C32.1257 117.157 31.7481 118.127 27.661 118.895C23.0499 119.763 17.3616 119.662 13.989 119.105C13.989 119.106 14.68 119.678 18.2302 119.906V119.906Z" fill="#0074BD"/>
</svg>
