<svg width="170" height="150" viewBox="0 0 170 150" fill="none" xmlns="http://www.w3.org/2000/svg">
<g clip-path="url(#clip0_348_2904)">
<path d="M0 100.11C68 67.5 106.5 118.5 170 100.11V150H0V100.11Z" fill="#FFFCB6"/>
<path d="M0 107.859C68 128.534 115.5 61.1556 170 107.859V150H0V107.859Z" fill="#EDE98B"/>
<path d="M19.248 131.288C19.248 131.885 19.104 132.445 18.816 132.968C18.5387 133.491 18.096 133.912 17.488 134.232C16.8907 134.552 16.1333 134.712 15.216 134.712H13.344V139H11.104V127.832H15.216C16.08 127.832 16.816 127.981 17.424 128.28C18.032 128.579 18.4853 128.989 18.784 129.512C19.0933 130.035 19.248 130.627 19.248 131.288ZM15.12 132.904C15.7387 132.904 16.1973 132.765 16.496 132.488C16.7947 132.2 16.944 131.8 16.944 131.288C16.944 130.2 16.336 129.656 15.12 129.656H13.344V132.904H15.12ZM29.3184 130.136L23.8304 143.192H21.4464L23.3664 138.776L19.8144 130.136H22.3264L24.6144 136.328L26.9344 130.136H29.3184ZM33.1339 131.976V136.264C33.1339 136.563 33.2032 136.781 33.3419 136.92C33.4912 137.048 33.7365 137.112 34.0779 137.112H35.1179V139H33.7099C31.8219 139 30.8779 138.083 30.8779 136.248V131.976H29.8219V130.136H30.8779V127.944H33.1339V130.136H35.1179V131.976H33.1339ZM41.721 130.008C42.393 130.008 42.9903 130.157 43.513 130.456C44.0357 130.744 44.441 131.176 44.729 131.752C45.0277 132.317 45.177 133 45.177 133.8V139H42.937V134.104C42.937 133.4 42.761 132.861 42.409 132.488C42.057 132.104 41.577 131.912 40.969 131.912C40.3503 131.912 39.8597 132.104 39.497 132.488C39.145 132.861 38.969 133.4 38.969 134.104V139H36.729V127.16H38.969V131.24C39.257 130.856 39.641 130.557 40.121 130.344C40.601 130.12 41.1343 130.008 41.721 130.008ZM51.2431 139.144C50.3898 139.144 49.6218 138.957 48.9391 138.584C48.2565 138.2 47.7178 137.661 47.3231 136.968C46.9391 136.275 46.7471 135.475 46.7471 134.568C46.7471 133.661 46.9445 132.861 47.3391 132.168C47.7445 131.475 48.2938 130.941 48.9871 130.568C49.6805 130.184 50.4538 129.992 51.3071 129.992C52.1605 129.992 52.9338 130.184 53.6271 130.568C54.3205 130.941 54.8645 131.475 55.2591 132.168C55.6645 132.861 55.8671 133.661 55.8671 134.568C55.8671 135.475 55.6591 136.275 55.2431 136.968C54.8378 137.661 54.2831 138.2 53.5791 138.584C52.8858 138.957 52.1071 139.144 51.2431 139.144ZM51.2431 137.192C51.6485 137.192 52.0271 137.096 52.3791 136.904C52.7418 136.701 53.0298 136.403 53.2431 136.008C53.4565 135.613 53.5631 135.133 53.5631 134.568C53.5631 133.725 53.3391 133.08 52.8911 132.632C52.4538 132.173 51.9151 131.944 51.2751 131.944C50.6351 131.944 50.0965 132.173 49.6591 132.632C49.2325 133.08 49.0191 133.725 49.0191 134.568C49.0191 135.411 49.2271 136.061 49.6431 136.52C50.0698 136.968 50.6031 137.192 51.2431 137.192ZM62.4223 130.008C63.4783 130.008 64.3316 130.344 64.9823 131.016C65.6329 131.677 65.9583 132.605 65.9583 133.8V139H63.7183V134.104C63.7183 133.4 63.5423 132.861 63.1903 132.488C62.8383 132.104 62.3583 131.912 61.7503 131.912C61.1316 131.912 60.6409 132.104 60.2783 132.488C59.9263 132.861 59.7503 133.4 59.7503 134.104V139H57.5103V130.136H59.7503V131.24C60.0489 130.856 60.4276 130.557 60.8863 130.344C61.3556 130.12 61.8676 130.008 62.4223 130.008Z" fill="#383838"/>
<path d="M127.31 130.408C127.363 129.341 127.736 128.52 128.43 127.944C129.134 127.357 130.056 127.064 131.198 127.064C131.976 127.064 132.643 127.203 133.198 127.48C133.752 127.747 134.168 128.115 134.446 128.584C134.734 129.043 134.878 129.565 134.878 130.152C134.878 130.824 134.702 131.395 134.35 131.864C134.008 132.323 133.598 132.632 133.118 132.792V132.856C133.736 133.048 134.216 133.389 134.558 133.88C134.91 134.371 135.086 135 135.086 135.768C135.086 136.408 134.936 136.979 134.638 137.48C134.35 137.981 133.918 138.376 133.342 138.664C132.776 138.941 132.094 139.08 131.294 139.08C130.088 139.08 129.107 138.776 128.35 138.168C127.592 137.56 127.192 136.664 127.15 135.48H129.326C129.347 136.003 129.523 136.424 129.854 136.744C130.195 137.053 130.659 137.208 131.246 137.208C131.79 137.208 132.206 137.059 132.494 136.76C132.792 136.451 132.942 136.056 132.942 135.576C132.942 134.936 132.739 134.477 132.334 134.2C131.928 133.923 131.299 133.784 130.446 133.784H129.982V131.944H130.446C131.96 131.944 132.718 131.437 132.718 130.424C132.718 129.965 132.579 129.608 132.302 129.352C132.035 129.096 131.646 128.968 131.134 128.968C130.632 128.968 130.243 129.107 129.966 129.384C129.699 129.651 129.544 129.992 129.502 130.408H127.31ZM144.696 129.272H139.512V132.008C139.736 131.731 140.056 131.507 140.472 131.336C140.888 131.155 141.33 131.064 141.8 131.064C142.653 131.064 143.352 131.251 143.896 131.624C144.44 131.997 144.834 132.477 145.08 133.064C145.325 133.64 145.448 134.259 145.448 134.92C145.448 136.147 145.096 137.133 144.392 137.88C143.698 138.627 142.706 139 141.416 139C140.2 139 139.229 138.696 138.504 138.088C137.778 137.48 137.368 136.685 137.272 135.704H139.448C139.544 136.131 139.757 136.472 140.088 136.728C140.429 136.984 140.861 137.112 141.384 137.112C142.013 137.112 142.488 136.915 142.808 136.52C143.128 136.125 143.288 135.603 143.288 134.952C143.288 134.291 143.122 133.789 142.792 133.448C142.472 133.096 141.997 132.92 141.368 132.92C140.92 132.92 140.546 133.032 140.248 133.256C139.949 133.48 139.736 133.779 139.608 134.152H137.464V127.304H144.696V129.272ZM146.897 130.2C146.897 129.389 147.131 128.755 147.601 128.296C148.081 127.837 148.694 127.608 149.441 127.608C150.187 127.608 150.795 127.837 151.265 128.296C151.745 128.755 151.985 129.389 151.985 130.2C151.985 131.021 151.745 131.661 151.265 132.12C150.795 132.579 150.187 132.808 149.441 132.808C148.694 132.808 148.081 132.579 147.601 132.12C147.131 131.661 146.897 131.021 146.897 130.2ZM157.169 127.8L150.881 139H148.705L154.977 127.8H157.169ZM149.425 128.952C148.838 128.952 148.545 129.368 148.545 130.2C148.545 131.043 148.838 131.464 149.425 131.464C149.713 131.464 149.937 131.363 150.097 131.16C150.257 130.947 150.337 130.627 150.337 130.2C150.337 129.368 150.033 128.952 149.425 128.952ZM153.921 136.584C153.921 135.763 154.155 135.128 154.625 134.68C155.105 134.221 155.718 133.992 156.465 133.992C157.211 133.992 157.814 134.221 158.273 134.68C158.742 135.128 158.977 135.763 158.977 136.584C158.977 137.405 158.742 138.045 158.273 138.504C157.814 138.963 157.211 139.192 156.465 139.192C155.707 139.192 155.094 138.963 154.625 138.504C154.155 138.045 153.921 137.405 153.921 136.584ZM156.449 135.336C155.841 135.336 155.537 135.752 155.537 136.584C155.537 137.427 155.841 137.848 156.449 137.848C157.046 137.848 157.345 137.427 157.345 136.584C157.345 135.752 157.046 135.336 156.449 135.336Z" fill="#616161"/>
</g>
<path d="M24.9698 89C17.3141 89 17.7922 92.32 17.7922 92.32L17.8007 95.7595H25.1064V96.7922H14.8989C14.8989 96.7922 10 96.2366 10 103.961C10 111.686 14.2759 111.412 14.2759 111.412H16.8277V107.827C16.8277 107.827 16.6902 103.552 21.0353 103.552H28.2813C28.2813 103.552 32.3523 103.617 32.3523 99.6171V93.0028C32.3523 93.0028 32.9704 89 24.9698 89V89ZM20.9414 91.3129C21.6683 91.3129 22.2558 91.9004 22.2558 92.6272C22.2558 93.3541 21.6683 93.9416 20.9414 93.9416C20.2146 93.9416 19.6271 93.3541 19.6271 92.6272C19.6271 91.9004 20.2146 91.3129 20.9414 91.3129Z" fill="url(#paint0_linear_348_2904)"/>
<path d="M25.1872 119C32.843 119 32.3649 115.68 32.3649 115.68L32.3564 112.241H25.0507V111.208H35.2581C35.2581 111.208 40.157 111.763 40.157 104.039C40.157 96.314 35.8812 96.5879 35.8812 96.5879H33.3293V100.172C33.3293 100.172 33.4669 104.448 29.1217 104.448H21.8758C21.8758 104.448 17.8047 104.383 17.8047 108.383V114.997C17.8047 114.997 17.1866 119 25.1872 119V119ZM29.2156 116.687C28.4887 116.687 27.9013 116.1 27.9013 115.373C27.9013 114.646 28.4887 114.058 29.2156 114.058C29.9425 114.058 30.5299 114.646 30.5299 115.373C30.5299 116.1 29.9425 116.687 29.2156 116.687Z" fill="url(#paint1_linear_348_2904)"/>
<defs>
<linearGradient id="paint0_linear_348_2904" x1="12.8981" y1="91.6984" x2="27.8429" y2="106.494" gradientUnits="userSpaceOnUse">
<stop stop-color="#387EB8"/>
<stop offset="1" stop-color="#366994"/>
</linearGradient>
<linearGradient id="paint1_linear_348_2904" x1="22.0712" y1="101.199" x2="38.1203" y2="116.371" gradientUnits="userSpaceOnUse">
<stop stop-color="#FFE052"/>
<stop offset="1" stop-color="#FFC331"/>
</linearGradient>
<clipPath id="clip0_348_2904">
<path d="M0 5C0 2.23858 2.23858 0 5 0H165C167.761 0 170 2.23858 170 5V145C170 147.761 167.761 150 165 150H5C2.23858 150 0 147.761 0 145V5Z" fill="white"/>
</clipPath>
</defs>
</svg>
