<svg width="170" height="150" viewBox="0 0 170 150" fill="none" xmlns="http://www.w3.org/2000/svg">
<path d="M0 57.14C83 32.0729 135 67.6655 170 57.14V150H0V57.14Z" fill="#A9EBE7"/>
<path d="M0 65.7942C44 80.342 104 26.1636 170 65.7942V150H0V65.7942Z" fill="#87D9D4"/>
<path d="M16.864 139L14.4 134.648H13.344V139H11.104V127.832H15.296C16.16 127.832 16.896 127.987 17.504 128.296C18.112 128.595 18.5653 129.005 18.864 129.528C19.1733 130.04 19.328 130.616 19.328 131.256C19.328 131.992 19.1147 132.659 18.688 133.256C18.2613 133.843 17.6267 134.248 16.784 134.472L19.456 139H16.864ZM13.344 132.968H15.216C15.824 132.968 16.2773 132.824 16.576 132.536C16.8747 132.237 17.024 131.827 17.024 131.304C17.024 130.792 16.8747 130.397 16.576 130.12C16.2773 129.832 15.824 129.688 15.216 129.688H13.344V132.968ZM29.594 134.376C29.594 134.696 29.5727 134.984 29.53 135.24H23.05C23.1033 135.88 23.3273 136.381 23.722 136.744C24.1167 137.107 24.602 137.288 25.178 137.288C26.01 137.288 26.602 136.931 26.954 136.216H29.37C29.114 137.069 28.6233 137.773 27.898 138.328C27.1727 138.872 26.282 139.144 25.226 139.144C24.3727 139.144 23.6047 138.957 22.922 138.584C22.25 138.2 21.722 137.661 21.338 136.968C20.9647 136.275 20.778 135.475 20.778 134.568C20.778 133.651 20.9647 132.845 21.338 132.152C21.7113 131.459 22.234 130.925 22.906 130.552C23.578 130.179 24.3513 129.992 25.226 129.992C26.0687 129.992 26.8207 130.173 27.482 130.536C28.154 130.899 28.6713 131.416 29.034 132.088C29.4073 132.749 29.594 133.512 29.594 134.376ZM27.274 133.736C27.2633 133.16 27.0553 132.701 26.65 132.36C26.2447 132.008 25.7487 131.832 25.162 131.832C24.6073 131.832 24.138 132.003 23.754 132.344C23.3807 132.675 23.1513 133.139 23.066 133.736H27.274ZM30.653 134.536C30.653 133.64 30.829 132.845 31.181 132.152C31.5437 131.459 32.029 130.925 32.637 130.552C33.2557 130.179 33.9437 129.992 34.701 129.992C35.3623 129.992 35.9383 130.125 36.429 130.392C36.9303 130.659 37.3303 130.995 37.629 131.4V130.136H39.885V139H37.629V137.704C37.341 138.12 36.941 138.467 36.429 138.744C35.9277 139.011 35.3463 139.144 34.685 139.144C33.9383 139.144 33.2557 138.952 32.637 138.568C32.029 138.184 31.5437 137.645 31.181 136.952C30.829 136.248 30.653 135.443 30.653 134.536ZM37.629 134.568C37.629 134.024 37.5223 133.56 37.309 133.176C37.0957 132.781 36.8077 132.483 36.445 132.28C36.0823 132.067 35.693 131.96 35.277 131.96C34.861 131.96 34.477 132.061 34.125 132.264C33.773 132.467 33.485 132.765 33.261 133.16C33.0477 133.544 32.941 134.003 32.941 134.536C32.941 135.069 33.0477 135.539 33.261 135.944C33.485 136.339 33.773 136.643 34.125 136.856C34.4877 137.069 34.8717 137.176 35.277 137.176C35.693 137.176 36.0823 137.075 36.445 136.872C36.8077 136.659 37.0957 136.36 37.309 135.976C37.5223 135.581 37.629 135.112 37.629 134.568ZM41.4967 134.568C41.4967 133.651 41.6834 132.851 42.0568 132.168C42.4301 131.475 42.9474 130.941 43.6088 130.568C44.2701 130.184 45.0274 129.992 45.8808 129.992C46.9794 129.992 47.8861 130.269 48.6008 130.824C49.3261 131.368 49.8114 132.136 50.0568 133.128H47.6408C47.5128 132.744 47.2941 132.445 46.9848 132.232C46.6861 132.008 46.3128 131.896 45.8648 131.896C45.2248 131.896 44.7181 132.131 44.3448 132.6C43.9714 133.059 43.7848 133.715 43.7848 134.568C43.7848 135.411 43.9714 136.067 44.3448 136.536C44.7181 136.995 45.2248 137.224 45.8648 137.224C46.7714 137.224 47.3634 136.819 47.6408 136.008H50.0568C49.8114 136.968 49.3261 137.731 48.6008 138.296C47.8754 138.861 46.9688 139.144 45.8808 139.144C45.0274 139.144 44.2701 138.957 43.6088 138.584C42.9474 138.2 42.4301 137.667 42.0568 136.984C41.6834 136.291 41.4967 135.485 41.4967 134.568ZM54.3058 131.976V136.264C54.3058 136.563 54.3751 136.781 54.5138 136.92C54.6631 137.048 54.9084 137.112 55.2498 137.112H56.2898V139H54.8818C52.9938 139 52.0498 138.083 52.0498 136.248V131.976H50.9938V130.136H52.0498V127.944H54.3058V130.136H56.2898V131.976H54.3058ZM64.4129 127.832V135.672C64.4129 136.76 64.0982 137.608 63.4689 138.216C62.8395 138.813 61.9969 139.112 60.9409 139.112C59.8742 139.112 59.0102 138.803 58.3489 138.184C57.6982 137.565 57.3729 136.701 57.3729 135.592H59.6129C59.6235 136.072 59.7355 136.445 59.9489 136.712C60.1729 136.979 60.4929 137.112 60.9089 137.112C61.3142 137.112 61.6235 136.984 61.8369 136.728C62.0502 136.472 62.1569 136.12 62.1569 135.672V127.832H64.4129ZM70.8819 139.112C70.1032 139.112 69.3992 138.979 68.7699 138.712C68.1512 138.445 67.6605 138.061 67.2979 137.56C66.9352 137.059 66.7485 136.467 66.7379 135.784H69.1379C69.1699 136.243 69.3299 136.605 69.6179 136.872C69.9165 137.139 70.3219 137.272 70.8339 137.272C71.3565 137.272 71.7672 137.149 72.0659 136.904C72.3645 136.648 72.5139 136.317 72.5139 135.912C72.5139 135.581 72.4125 135.309 72.2099 135.096C72.0072 134.883 71.7512 134.717 71.4419 134.6C71.1432 134.472 70.7272 134.333 70.1939 134.184C69.4685 133.971 68.8765 133.763 68.4179 133.56C67.9699 133.347 67.5805 133.032 67.2499 132.616C66.9299 132.189 66.7699 131.624 66.7699 130.92C66.7699 130.259 66.9352 129.683 67.2659 129.192C67.5965 128.701 68.0605 128.328 68.6579 128.072C69.2552 127.805 69.9379 127.672 70.7059 127.672C71.8579 127.672 72.7912 127.955 73.5059 128.52C74.2312 129.075 74.6312 129.853 74.7059 130.856H72.2419C72.2205 130.472 72.0552 130.157 71.7459 129.912C71.4472 129.656 71.0472 129.528 70.5459 129.528C70.1085 129.528 69.7565 129.64 69.4899 129.864C69.2339 130.088 69.1059 130.413 69.1059 130.84C69.1059 131.139 69.2019 131.389 69.3939 131.592C69.5965 131.784 69.8419 131.944 70.1299 132.072C70.4285 132.189 70.8445 132.328 71.3779 132.488C72.1032 132.701 72.6952 132.915 73.1539 133.128C73.6125 133.341 74.0072 133.661 74.3379 134.088C74.6685 134.515 74.8339 135.075 74.8339 135.768C74.8339 136.365 74.6792 136.92 74.3699 137.432C74.0605 137.944 73.6072 138.355 73.0099 138.664C72.4125 138.963 71.7032 139.112 70.8819 139.112Z" fill="#383838"/>
<path d="M135.608 129.032L131.352 139H129.08L133.368 129.288H127.896V127.368H135.608V129.032ZM144.79 129.272H139.606V132.008C139.83 131.731 140.15 131.507 140.566 131.336C140.982 131.155 141.424 131.064 141.894 131.064C142.747 131.064 143.446 131.251 143.99 131.624C144.534 131.997 144.928 132.477 145.174 133.064C145.419 133.64 145.542 134.259 145.542 134.92C145.542 136.147 145.19 137.133 144.486 137.88C143.792 138.627 142.8 139 141.51 139C140.294 139 139.323 138.696 138.598 138.088C137.872 137.48 137.462 136.685 137.366 135.704H139.542C139.638 136.131 139.851 136.472 140.182 136.728C140.523 136.984 140.955 137.112 141.478 137.112C142.107 137.112 142.582 136.915 142.902 136.52C143.222 136.125 143.382 135.603 143.382 134.952C143.382 134.291 143.216 133.789 142.886 133.448C142.566 133.096 142.091 132.92 141.462 132.92C141.014 132.92 140.64 133.032 140.342 133.256C140.043 133.48 139.83 133.779 139.702 134.152H137.558V127.304H144.79V129.272ZM146.99 130.2C146.99 129.389 147.225 128.755 147.694 128.296C148.174 127.837 148.788 127.608 149.534 127.608C150.281 127.608 150.889 127.837 151.358 128.296C151.838 128.755 152.078 129.389 152.078 130.2C152.078 131.021 151.838 131.661 151.358 132.12C150.889 132.579 150.281 132.808 149.534 132.808C148.788 132.808 148.174 132.579 147.694 132.12C147.225 131.661 146.99 131.021 146.99 130.2ZM157.262 127.8L150.974 139H148.798L155.07 127.8H157.262ZM149.518 128.952C148.932 128.952 148.638 129.368 148.638 130.2C148.638 131.043 148.932 131.464 149.518 131.464C149.806 131.464 150.03 131.363 150.19 131.16C150.35 130.947 150.43 130.627 150.43 130.2C150.43 129.368 150.126 128.952 149.518 128.952ZM154.014 136.584C154.014 135.763 154.249 135.128 154.718 134.68C155.198 134.221 155.812 133.992 156.558 133.992C157.305 133.992 157.908 134.221 158.366 134.68C158.836 135.128 159.07 135.763 159.07 136.584C159.07 137.405 158.836 138.045 158.366 138.504C157.908 138.963 157.305 139.192 156.558 139.192C155.801 139.192 155.188 138.963 154.718 138.504C154.249 138.045 154.014 137.405 154.014 136.584ZM156.542 135.336C155.934 135.336 155.63 135.752 155.63 136.584C155.63 137.427 155.934 137.848 156.542 137.848C157.14 137.848 157.438 137.427 157.438 136.584C157.438 135.752 157.14 135.336 156.542 135.336Z" fill="#616161"/>
<g opacity="0.2">
<path d="M24 112.25C15.5887 112.25 9 109.505 9 106C9 102.495 15.5887 99.75 24 99.75C32.4113 99.75 39 102.495 39 106C39 109.505 32.4113 112.25 24 112.25ZM24 101C15.8975 101 10.25 103.635 10.25 106C10.25 108.365 15.8975 111 24 111C32.1025 111 37.75 108.365 37.75 106C37.75 103.635 32.1025 101 24 101Z" fill="black"/>
<path d="M18.5888 119.751C17.99 119.751 17.4513 119.604 16.9775 119.309C14 117.456 15.015 110.161 19.2863 102.704C22.4238 97.225 26.4675 93.1775 29.5888 92.39C30.63 92.13 31.53 92.23 32.2725 92.69C35.25 94.5437 34.235 101.839 29.9638 109.296C26.8263 114.775 22.7825 118.822 19.6613 119.61C19.285 119.704 18.9275 119.751 18.5888 119.751ZM17.6375 118.247C18.08 118.524 18.6575 118.572 19.355 118.397C22.12 117.7 25.9475 113.792 28.8775 108.676C33.015 101.454 33.6388 95.0137 31.6125 93.7537C31.17 93.4775 30.5925 93.4275 29.895 93.6037C27.13 94.3012 23.3025 98.2087 20.3725 103.325C16.235 110.547 15.6113 116.986 17.6375 118.247Z" fill="black"/>
<path d="M29.4113 119.751C29.0725 119.751 28.715 119.704 28.3388 119.61C25.2175 118.823 21.1738 114.775 18.0363 109.296C13.765 101.839 12.75 94.5438 15.7275 92.6913C16.4688 92.2313 17.3713 92.1313 18.4113 92.3913C21.5325 93.1788 25.5763 97.2263 28.7138 102.705C32.985 110.163 34 117.458 31.0238 119.31C30.5488 119.604 30.01 119.751 29.4113 119.751ZM30.6925 118.779H30.705H30.6925ZM17.3463 93.5C16.9788 93.5 16.6575 93.5838 16.3875 93.7525C14.3613 95.0138 14.985 101.453 19.1225 108.675C22.0525 113.793 25.88 117.7 28.645 118.396C29.3425 118.571 29.92 118.523 30.3625 118.246C32.3888 116.985 31.765 110.546 27.6275 103.324C24.6975 98.2063 20.87 94.2988 18.105 93.6025C17.8338 93.5338 17.58 93.5 17.3463 93.5Z" fill="black"/>
<path d="M24 109.125C22.2775 109.125 20.875 107.724 20.875 106C20.875 104.276 22.2775 102.875 24 102.875C25.7225 102.875 27.125 104.276 27.125 106C27.125 107.724 25.7225 109.125 24 109.125ZM24 104.125C22.9662 104.125 22.125 104.966 22.125 106C22.125 107.034 22.9662 107.875 24 107.875C25.0338 107.875 25.875 107.034 25.875 106C25.875 104.966 25.0338 104.125 24 104.125Z" fill="black"/>
</g>
<g opacity="0.75">
<path d="M24 108.683C25.4822 108.683 26.6838 107.481 26.6838 105.999C26.6838 104.517 25.4822 103.315 24 103.315C22.5178 103.315 21.3163 104.517 21.3163 105.999C21.3163 107.481 22.5178 108.683 24 108.683Z" fill="#53C1DE"/>
<path d="M14.6425 110.751C14.9062 110.839 15.17 110.927 15.44 111.004C15.3525 111.355 15.2763 111.701 15.205 112.059C14.59 115.311 15.07 117.889 16.605 118.774C18.1875 119.687 20.8475 118.75 23.4375 116.482C23.6425 116.301 23.8475 116.114 24.0525 115.914C24.31 116.166 24.58 116.406 24.8488 116.64C27.3563 118.796 29.835 119.669 31.365 118.785C32.9475 117.871 33.4625 115.1 32.795 111.725C32.7425 111.467 32.6838 111.204 32.6188 110.934C32.8063 110.881 32.9875 110.822 33.17 110.764C36.5513 109.645 39 107.834 39 105.976C39 104.201 36.6912 102.479 33.5037 101.382V101.381C33.1875 101.276 32.8713 101.176 32.555 101.082C32.6075 100.866 32.655 100.649 32.7013 100.432C33.4225 96.94 32.9475 94.135 31.3475 93.2087C29.8062 92.3237 27.2925 93.2437 24.75 95.4587C24.4975 95.675 24.2525 95.9037 24.0175 96.1325C23.8588 95.98 23.695 95.8275 23.5312 95.6812C20.865 93.3137 18.1937 92.3175 16.5938 93.25C15.0587 94.1412 14.6013 96.7837 15.2463 100.086C15.3113 100.415 15.3812 100.736 15.4625 101.065C15.0875 101.17 14.7188 101.287 14.3725 101.411C11.2437 102.495 9 104.206 9 105.976C9 107.805 11.39 109.637 14.6425 110.751ZM22.6112 115.525C21.645 116.41 20.525 117.112 19.3062 117.594C18.6562 117.904 17.9062 117.934 17.2375 117.67C16.3063 117.131 15.9187 115.062 16.4462 112.279C16.5112 111.951 16.5813 111.622 16.6625 111.3C17.975 111.581 19.2987 111.775 20.6412 111.874C21.415 112.97 22.2638 114.019 23.1725 115.002C22.985 115.184 22.7975 115.36 22.61 115.524L22.6112 115.525ZM30.0525 104.522C29.7775 104.006 29.4963 103.491 29.2025 102.987C28.915 102.49 28.6162 101.997 28.3062 101.511C29.25 101.629 30.1525 101.786 30.9963 101.98C30.7262 102.847 30.41 103.691 30.0525 104.522ZM30.0637 107.44C30.4387 108.29 30.7675 109.151 31.0537 110.036C30.145 110.241 29.2262 110.4 28.3 110.505C28.6162 110.012 28.915 109.509 29.2087 109.005C29.5075 108.489 29.7887 107.967 30.0637 107.44ZM29.3862 105.982C28.9937 106.791 28.5712 107.587 28.1213 108.372C27.6763 109.151 27.2013 109.907 26.7038 110.657C25.8312 110.722 24.9225 110.751 24.0025 110.751C23.0825 110.751 22.1925 110.722 21.3312 110.669C20.8212 109.925 20.3412 109.162 19.89 108.384C19.4388 107.605 19.0225 106.814 18.63 106.005H18.6275C19.0138 105.196 19.4362 104.405 19.8813 103.626C20.3263 102.847 20.8075 102.091 21.3112 101.347C22.19 101.282 23.0863 101.247 24.0013 101.247C24.9163 101.247 25.8175 101.282 26.6912 101.347C27.1887 102.086 27.6637 102.841 28.115 103.615C28.5662 104.389 28.9875 105.18 29.3862 105.982ZM18.79 102.999C18.5025 103.496 18.2212 104.005 17.9575 104.521C17.5887 103.649 17.2775 102.794 17.02 101.967C17.8637 101.78 18.76 101.627 19.6913 101.51C19.3825 101.996 19.0775 102.494 18.79 102.999ZM17.9587 107.486C18.2288 108.002 18.5037 108.512 18.7962 109.016C19.095 109.526 19.4 110.036 19.7225 110.534C18.8088 110.434 17.9 110.287 17.0037 110.094C17.2612 109.25 17.5837 108.377 17.9587 107.486ZM24.0475 114.1C23.45 113.456 22.8525 112.742 22.2725 111.974C22.835 111.997 23.415 112.009 24.0013 112.009C24.605 112.009 25.1962 111.997 25.7825 111.967C25.2437 112.711 24.6637 113.421 24.0475 114.1ZM31.7063 115.86C31.6525 116.574 31.3013 117.241 30.7388 117.692C29.8075 118.231 27.8212 117.529 25.6763 115.689C25.43 115.477 25.1838 115.249 24.9325 115.015C25.8288 114.025 26.655 112.976 27.405 111.875C28.7463 111.764 30.0825 111.559 31.4012 111.26C31.46 111.5 31.5125 111.74 31.56 111.975C31.8475 113.241 31.8938 114.559 31.7063 115.86ZM32.215 102.29C32.52 102.377 32.8125 102.471 33.0938 102.565C35.8237 103.502 37.74 104.897 37.74 105.964C37.74 107.112 35.695 108.595 32.7712 109.561C32.6075 109.614 32.4437 109.666 32.2738 109.714C31.8637 108.436 31.36 107.189 30.78 105.975C31.3425 104.78 31.8175 103.549 32.215 102.29ZM25.575 96.4075C27.7563 94.51 29.7887 93.7662 30.715 94.2987C31.705 94.8675 32.0863 97.1637 31.465 100.181C31.4237 100.38 31.3825 100.574 31.33 100.767C30.0287 100.475 28.7113 100.264 27.3862 100.146C26.625 99.055 25.7925 98.0125 24.89 97.0337C25.1187 96.8175 25.3412 96.6125 25.575 96.4075ZM24.0125 97.9312C24.6275 98.5987 25.2075 99.3012 25.7463 100.027C24.5863 99.975 23.42 99.975 22.26 100.027C22.8337 99.2725 23.4263 98.57 24.0125 97.9312ZM17.215 94.34C18.2 93.7662 20.385 94.5862 22.6875 96.625C22.8337 96.7537 22.98 96.895 23.1325 97.035C22.2238 98.0125 21.3863 99.055 20.6187 100.145C19.295 100.262 17.9825 100.467 16.6813 100.755C16.605 100.456 16.5412 100.151 16.4762 99.8462C15.925 97.01 16.2888 94.8725 17.215 94.34ZM14.7837 102.6C15.1175 102.482 15.4575 102.377 15.7975 102.277C16.1963 103.549 16.6762 104.797 17.2325 106.004C16.67 107.229 16.1837 108.494 15.78 109.782L15.7787 109.784C15.5325 109.714 15.2925 109.637 15.0525 109.555C13.805 109.162 12.3863 108.541 11.3613 107.727C10.77 107.317 10.3713 106.685 10.26 105.975C10.26 104.902 12.1112 103.531 14.7837 102.6Z" fill="#53C1DE"/>
</g>
</svg>
