<svg width="170" height="150" viewBox="0 0 170 150" fill="none" xmlns="http://www.w3.org/2000/svg">
<path d="M0 28.1673C49 55.0127 118 0.266391 170 28.1673V150H0V28.1673Z" fill="#CDDFFF"/>
<path d="M0 39.093C72 6.47455 131 58.0687 170 39.093V150H0V39.093Z" fill="#84B1DB"/>
<path d="M10.56 133.4C10.56 132.301 10.8053 131.32 11.296 130.456C11.7973 129.581 12.4747 128.904 13.328 128.424C14.192 127.933 15.1573 127.688 16.224 127.688C17.472 127.688 18.5653 128.008 19.504 128.648C20.4427 129.288 21.0987 130.173 21.472 131.304H18.896C18.64 130.771 18.2773 130.371 17.808 130.104C17.3493 129.837 16.816 129.704 16.208 129.704C15.5573 129.704 14.976 129.859 14.464 130.168C13.9627 130.467 13.568 130.893 13.28 131.448C13.0027 132.003 12.864 132.653 12.864 133.4C12.864 134.136 13.0027 134.787 13.28 135.352C13.568 135.907 13.9627 136.339 14.464 136.648C14.976 136.947 15.5573 137.096 16.208 137.096C16.816 137.096 17.3493 136.963 17.808 136.696C18.2773 136.419 18.64 136.013 18.896 135.48H21.472C21.0987 136.621 20.4427 137.512 19.504 138.152C18.576 138.781 17.4827 139.096 16.224 139.096C15.1573 139.096 14.192 138.856 13.328 138.376C12.4747 137.885 11.7973 137.208 11.296 136.344C10.8053 135.48 10.56 134.499 10.56 133.4ZM31.7533 134.28H28.7293V137.384H26.6173V134.28H23.5933V132.328H26.6173V129.224H28.7293V132.328H31.7533V134.28ZM42.5345 134.28H39.5105V137.384H37.3985V134.28H34.3745V132.328H37.3985V129.224H39.5105V132.328H42.5345V134.28Z" fill="#383838"/>
<path d="M128.878 132.824C127.811 132.269 127.278 131.411 127.278 130.248C127.278 129.672 127.422 129.149 127.71 128.68C128.009 128.2 128.451 127.821 129.038 127.544C129.635 127.256 130.361 127.112 131.214 127.112C132.067 127.112 132.787 127.256 133.374 127.544C133.971 127.821 134.414 128.2 134.702 128.68C135.001 129.149 135.15 129.672 135.15 130.248C135.15 130.835 135.006 131.352 134.718 131.8C134.43 132.237 134.046 132.579 133.566 132.824C134.153 133.08 134.611 133.453 134.942 133.944C135.273 134.435 135.438 135.016 135.438 135.688C135.438 136.413 135.251 137.048 134.878 137.592C134.515 138.125 134.014 138.536 133.374 138.824C132.734 139.112 132.014 139.256 131.214 139.256C130.414 139.256 129.694 139.112 129.054 138.824C128.425 138.536 127.923 138.125 127.55 137.592C127.187 137.048 127.006 136.413 127.006 135.688C127.006 135.016 127.171 134.435 127.502 133.944C127.833 133.443 128.291 133.069 128.878 132.824ZM132.974 130.568C132.974 130.045 132.814 129.64 132.494 129.352C132.185 129.064 131.758 128.92 131.214 128.92C130.681 128.92 130.254 129.064 129.934 129.352C129.625 129.64 129.47 130.051 129.47 130.584C129.47 131.064 129.63 131.448 129.95 131.736C130.281 132.024 130.702 132.168 131.214 132.168C131.726 132.168 132.147 132.024 132.478 131.736C132.809 131.437 132.974 131.048 132.974 130.568ZM131.214 133.8C130.606 133.8 130.11 133.955 129.726 134.264C129.353 134.573 129.166 135.016 129.166 135.592C129.166 136.125 129.347 136.563 129.71 136.904C130.083 137.235 130.585 137.4 131.214 137.4C131.843 137.4 132.339 137.229 132.702 136.888C133.065 136.547 133.246 136.115 133.246 135.592C133.246 135.027 133.059 134.589 132.686 134.28C132.313 133.96 131.822 133.8 131.214 133.8ZM145.047 129.272H139.863V132.008C140.087 131.731 140.407 131.507 140.823 131.336C141.239 131.155 141.682 131.064 142.151 131.064C143.005 131.064 143.703 131.251 144.247 131.624C144.791 131.997 145.186 132.477 145.431 133.064C145.677 133.64 145.799 134.259 145.799 134.92C145.799 136.147 145.447 137.133 144.743 137.88C144.05 138.627 143.058 139 141.767 139C140.551 139 139.581 138.696 138.855 138.088C138.13 137.48 137.719 136.685 137.623 135.704H139.799C139.895 136.131 140.109 136.472 140.439 136.728C140.781 136.984 141.213 137.112 141.735 137.112C142.365 137.112 142.839 136.915 143.159 136.52C143.479 136.125 143.639 135.603 143.639 134.952C143.639 134.291 143.474 133.789 143.143 133.448C142.823 133.096 142.349 132.92 141.719 132.92C141.271 132.92 140.898 133.032 140.599 133.256C140.301 133.48 140.087 133.779 139.959 134.152H137.815V127.304H145.047V129.272ZM147.248 130.2C147.248 129.389 147.483 128.755 147.952 128.296C148.432 127.837 149.046 127.608 149.792 127.608C150.539 127.608 151.147 127.837 151.616 128.296C152.096 128.755 152.336 129.389 152.336 130.2C152.336 131.021 152.096 131.661 151.616 132.12C151.147 132.579 150.539 132.808 149.792 132.808C149.046 132.808 148.432 132.579 147.952 132.12C147.483 131.661 147.248 131.021 147.248 130.2ZM157.52 127.8L151.232 139H149.056L155.328 127.8H157.52ZM149.776 128.952C149.19 128.952 148.896 129.368 148.896 130.2C148.896 131.043 149.19 131.464 149.776 131.464C150.064 131.464 150.288 131.363 150.448 131.16C150.608 130.947 150.688 130.627 150.688 130.2C150.688 129.368 150.384 128.952 149.776 128.952ZM154.272 136.584C154.272 135.763 154.507 135.128 154.976 134.68C155.456 134.221 156.07 133.992 156.816 133.992C157.563 133.992 158.166 134.221 158.624 134.68C159.094 135.128 159.328 135.763 159.328 136.584C159.328 137.405 159.094 138.045 158.624 138.504C158.166 138.963 157.563 139.192 156.816 139.192C156.059 139.192 155.446 138.963 154.976 138.504C154.507 138.045 154.272 137.405 154.272 136.584ZM156.8 135.336C156.192 135.336 155.888 135.752 155.888 136.584C155.888 137.427 156.192 137.848 156.8 137.848C157.398 137.848 157.696 137.427 157.696 136.584C157.696 135.752 157.398 135.336 156.8 135.336Z" fill="#616161"/>
<path d="M37.691 99.82C37.6908 99.3156 37.5829 98.8698 37.3648 98.4873C37.1505 98.1111 36.8295 97.7958 36.399 97.5465C32.8455 95.4975 29.2886 93.4548 25.7363 91.4038C24.7786 90.8509 23.85 90.8711 22.8994 91.4319C21.485 92.266 14.4036 96.3231 12.2935 97.5454C11.4244 98.0484 11.0016 98.8183 11.0014 99.8191C11 103.94 11.0014 108.06 11 112.181C11.0002 112.674 11.1035 113.111 11.3121 113.488C11.5265 113.876 11.8519 114.2 12.2923 114.455C14.4026 115.677 21.4849 119.734 22.899 120.568C23.85 121.129 24.7786 121.149 25.7366 120.596C29.289 118.545 32.8462 116.502 36.4002 114.453C36.8406 114.198 37.166 113.874 37.3804 113.487C37.5887 113.11 37.6922 112.673 37.6924 112.18C37.6924 112.18 37.6924 103.941 37.691 99.82" fill="#5C8DBC"/>
<path d="M24.387 105.96L11.3121 113.488C11.5265 113.876 11.8519 114.2 12.2923 114.455C14.4026 115.677 21.4849 119.734 22.899 120.568C23.85 121.129 24.7786 121.149 25.7366 120.596C29.289 118.545 32.8462 116.502 36.4002 114.453C36.8406 114.199 37.166 113.874 37.3804 113.487L24.387 105.96Z" fill="#1A4674"/>
<path d="M20.5144 108.19C21.2752 109.518 22.7055 110.414 24.3462 110.414C25.997 110.414 27.4355 109.507 28.1924 108.164L24.387 105.96L20.5144 108.19Z" fill="#1A4674"/>
<path d="M37.691 99.82C37.6908 99.3156 37.5829 98.8699 37.3648 98.4873L24.387 105.96L37.3804 113.487C37.5887 113.11 37.6922 112.673 37.6924 112.18C37.6924 112.18 37.6924 103.941 37.691 99.82" fill="#1B598E"/>
<path d="M36.9766 106.498H35.9612V107.513H34.9457V106.498H33.9305V105.483H34.9457V104.467H35.9612V105.483H36.9766V106.498Z" fill="white"/>
<path d="M33.2717 106.498H32.2564V107.513H31.2411V106.498H30.2257V105.483H31.2411V104.467H32.2564V105.483H33.2717V106.498Z" fill="white"/>
<path d="M28.1924 108.164C27.4355 109.507 25.9971 110.414 24.3462 110.414C22.7055 110.414 21.2752 109.518 20.5144 108.19C20.1448 107.544 19.9323 106.797 19.9323 106C19.9323 103.562 21.9085 101.586 24.3462 101.586C25.9764 101.586 27.3991 102.471 28.1637 103.785L32.0217 101.564C30.4883 98.9167 27.6253 97.1359 24.3462 97.1359C19.4506 97.1359 15.4821 101.104 15.4821 106C15.4821 107.606 15.9093 109.112 16.656 110.411C18.1856 113.072 21.0567 114.864 24.3462 114.864C27.6417 114.864 30.5173 113.065 32.0447 110.396L28.1924 108.164Z" fill="white"/>
</svg>
