<svg width="170" height="150" viewBox="0 0 170 150" fill="none" xmlns="http://www.w3.org/2000/svg">
<g clip-path="url(#clip0_348_2903)">
<path d="M0 72.3833C73 112 107 26 170 72.3833V150H0V72.3833Z" fill="#FFAF6B"/>
<path d="M0 90.0026C61 39.5 124.5 115 170 90.0026V150H0V90.0026Z" fill="#FF9857"/>
<path d="M17.616 127.832V135.672C17.616 136.76 17.3013 137.608 16.672 138.216C16.0427 138.813 15.2 139.112 14.144 139.112C13.0773 139.112 12.2133 138.803 11.552 138.184C10.9013 137.565 10.576 136.701 10.576 135.592H12.816C12.8267 136.072 12.9387 136.445 13.152 136.712C13.376 136.979 13.696 137.112 14.112 137.112C14.5173 137.112 14.8267 136.984 15.04 136.728C15.2533 136.472 15.36 136.12 15.36 135.672V127.832H17.616ZM19.653 134.536C19.653 133.64 19.829 132.845 20.181 132.152C20.5437 131.459 21.029 130.925 21.637 130.552C22.2557 130.179 22.9437 129.992 23.701 129.992C24.3623 129.992 24.9383 130.125 25.429 130.392C25.9303 130.659 26.3303 130.995 26.629 131.4V130.136H28.885V139H26.629V137.704C26.341 138.12 25.941 138.467 25.429 138.744C24.9277 139.011 24.3463 139.144 23.685 139.144C22.9383 139.144 22.2557 138.952 21.637 138.568C21.029 138.184 20.5437 137.645 20.181 136.952C19.829 136.248 19.653 135.443 19.653 134.536ZM26.629 134.568C26.629 134.024 26.5223 133.56 26.309 133.176C26.0957 132.781 25.8077 132.483 25.445 132.28C25.0823 132.067 24.693 131.96 24.277 131.96C23.861 131.96 23.477 132.061 23.125 132.264C22.773 132.467 22.485 132.765 22.261 133.16C22.0477 133.544 21.941 134.003 21.941 134.536C21.941 135.069 22.0477 135.539 22.261 135.944C22.485 136.339 22.773 136.643 23.125 136.856C23.4877 137.069 23.8717 137.176 24.277 137.176C24.693 137.176 25.0823 137.075 25.445 136.872C25.8077 136.659 26.0957 136.36 26.309 135.976C26.5223 135.581 26.629 135.112 26.629 134.568ZM34.7688 136.936L37.0088 130.136H39.3928L36.1128 139H33.3928L30.1288 130.136H32.5288L34.7688 136.936ZM40.0749 134.536C40.0749 133.64 40.2509 132.845 40.6029 132.152C40.9655 131.459 41.4509 130.925 42.0589 130.552C42.6775 130.179 43.3655 129.992 44.1229 129.992C44.7842 129.992 45.3602 130.125 45.8509 130.392C46.3522 130.659 46.7522 130.995 47.0509 131.4V130.136H49.3069V139H47.0509V137.704C46.7629 138.12 46.3629 138.467 45.8509 138.744C45.3495 139.011 44.7682 139.144 44.1069 139.144C43.3602 139.144 42.6775 138.952 42.0589 138.568C41.4509 138.184 40.9655 137.645 40.6029 136.952C40.2509 136.248 40.0749 135.443 40.0749 134.536ZM47.0509 134.568C47.0509 134.024 46.9442 133.56 46.7309 133.176C46.5175 132.781 46.2295 132.483 45.8669 132.28C45.5042 132.067 45.1149 131.96 44.6989 131.96C44.2829 131.96 43.8989 132.061 43.5469 132.264C43.1949 132.467 42.9069 132.765 42.6829 133.16C42.4695 133.544 42.3629 134.003 42.3629 134.536C42.3629 135.069 42.4695 135.539 42.6829 135.944C42.9069 136.339 43.1949 136.643 43.5469 136.856C43.9095 137.069 44.2935 137.176 44.6989 137.176C45.1149 137.176 45.5042 137.075 45.8669 136.872C46.2295 136.659 46.5175 136.36 46.7309 135.976C46.9442 135.581 47.0509 135.112 47.0509 134.568Z" fill="#383838"/>
<path d="M134.735 129.272H129.551V132.008C129.775 131.731 130.095 131.507 130.511 131.336C130.927 131.155 131.37 131.064 131.839 131.064C132.692 131.064 133.391 131.251 133.935 131.624C134.479 131.997 134.874 132.477 135.119 133.064C135.364 133.64 135.487 134.259 135.487 134.92C135.487 136.147 135.135 137.133 134.431 137.88C133.738 138.627 132.746 139 131.455 139C130.239 139 129.268 138.696 128.543 138.088C127.818 137.48 127.407 136.685 127.311 135.704H129.487C129.583 136.131 129.796 136.472 130.127 136.728C130.468 136.984 130.9 137.112 131.423 137.112C132.052 137.112 132.527 136.915 132.847 136.52C133.167 136.125 133.327 135.603 133.327 134.952C133.327 134.291 133.162 133.789 132.831 133.448C132.511 133.096 132.036 132.92 131.407 132.92C130.959 132.92 130.586 133.032 130.287 133.256C129.988 133.48 129.775 133.779 129.647 134.152H127.503V127.304H134.735V129.272ZM137.192 133.016C137.192 131.171 137.522 129.725 138.184 128.68C138.856 127.635 139.965 127.112 141.512 127.112C143.058 127.112 144.162 127.635 144.824 128.68C145.496 129.725 145.832 131.171 145.832 133.016C145.832 134.872 145.496 136.328 144.824 137.384C144.162 138.44 143.058 138.968 141.512 138.968C139.965 138.968 138.856 138.44 138.184 137.384C137.522 136.328 137.192 134.872 137.192 133.016ZM143.624 133.016C143.624 132.227 143.57 131.565 143.464 131.032C143.368 130.488 143.165 130.045 142.856 129.704C142.557 129.363 142.109 129.192 141.512 129.192C140.914 129.192 140.461 129.363 140.152 129.704C139.853 130.045 139.65 130.488 139.544 131.032C139.448 131.565 139.4 132.227 139.4 133.016C139.4 133.827 139.448 134.509 139.544 135.064C139.64 135.608 139.842 136.051 140.152 136.392C140.461 136.723 140.914 136.888 141.512 136.888C142.109 136.888 142.562 136.723 142.872 136.392C143.181 136.051 143.384 135.608 143.48 135.064C143.576 134.509 143.624 133.827 143.624 133.016ZM147.28 130.2C147.28 129.389 147.514 128.755 147.984 128.296C148.464 127.837 149.077 127.608 149.824 127.608C150.57 127.608 151.178 127.837 151.648 128.296C152.128 128.755 152.368 129.389 152.368 130.2C152.368 131.021 152.128 131.661 151.648 132.12C151.178 132.579 150.57 132.808 149.824 132.808C149.077 132.808 148.464 132.579 147.984 132.12C147.514 131.661 147.28 131.021 147.28 130.2ZM157.552 127.8L151.264 139H149.088L155.36 127.8H157.552ZM149.808 128.952C149.221 128.952 148.928 129.368 148.928 130.2C148.928 131.043 149.221 131.464 149.808 131.464C150.096 131.464 150.32 131.363 150.48 131.16C150.64 130.947 150.72 130.627 150.72 130.2C150.72 129.368 150.416 128.952 149.808 128.952ZM154.304 136.584C154.304 135.763 154.538 135.128 155.008 134.68C155.488 134.221 156.101 133.992 156.848 133.992C157.594 133.992 158.197 134.221 158.656 134.68C159.125 135.128 159.36 135.763 159.36 136.584C159.36 137.405 159.125 138.045 158.656 138.504C158.197 138.963 157.594 139.192 156.848 139.192C156.09 139.192 155.477 138.963 155.008 138.504C154.538 138.045 154.304 137.405 154.304 136.584ZM156.832 135.336C156.224 135.336 155.92 135.752 155.92 136.584C155.92 137.427 156.224 137.848 156.832 137.848C157.429 137.848 157.728 137.427 157.728 136.584C157.728 135.752 157.429 135.336 156.832 135.336Z" fill="#616161"/>
</g>
<path d="M17.1254 113.2C17.1254 113.2 15.9797 113.867 17.9418 114.092C20.3192 114.364 21.5341 114.325 24.1533 113.83C24.1533 113.83 24.8433 114.261 25.8051 114.635C19.9315 117.151 12.5126 114.489 17.1254 113.2ZM16.4073 109.916C16.4073 109.916 15.1219 110.868 17.0857 111.071C19.6253 111.333 21.6305 111.355 25.1019 110.686C25.1019 110.686 25.5809 111.173 26.3353 111.439C19.2353 113.515 11.3273 111.602 16.4073 109.916V109.916Z" fill="#0074BD"/>
<path d="M22.4572 104.344C23.9052 106.011 22.0775 107.509 22.0775 107.509C22.0775 107.509 25.752 105.613 24.0648 103.237C22.4885 101.022 21.2801 99.9222 27.8225 96.1278C27.8225 96.128 17.5527 98.6922 22.4572 104.344V104.344Z" fill="#EA2D2E"/>
<path d="M30.2251 115.63C30.2251 115.63 31.0733 116.329 29.2907 116.87C25.9015 117.896 15.1816 118.206 12.2043 116.911C11.1345 116.445 13.1413 115.799 13.7727 115.663C14.431 115.52 14.8069 115.546 14.8069 115.546C13.6165 114.708 7.11301 117.193 11.5039 117.905C23.4777 119.846 33.3305 117.031 30.2251 115.63V115.63ZM17.677 106.513C17.677 106.513 12.2247 107.808 15.7463 108.279C17.2335 108.478 20.1969 108.432 22.959 108.2C25.2158 108.011 27.4805 107.606 27.4805 107.606C27.4805 107.606 26.6854 107.947 26.1096 108.339C20.5718 109.796 9.87639 109.118 12.9558 107.629C15.5591 106.369 17.677 106.513 17.677 106.513V106.513ZM27.4579 111.98C33.0868 109.055 30.4839 106.245 28.6673 106.624C28.2231 106.716 28.0239 106.797 28.0239 106.797C28.0239 106.797 28.1892 106.537 28.5045 106.426C32.0983 105.163 34.8617 110.152 27.3454 112.128C27.3454 112.127 27.4317 112.049 27.4579 111.98V111.98Z" fill="#0074BD"/>
<path d="M24.0648 90C24.0648 90 27.1815 93.1186 21.108 97.9126C16.2373 101.759 19.9974 103.952 21.1063 106.459C18.2629 103.894 16.1773 101.635 17.5763 99.5334C19.6306 96.4489 25.322 94.9528 24.0648 90V90Z" fill="#EA2D2E"/>
<path d="M18.2302 119.906C23.632 120.251 31.9293 119.714 32.1257 117.157C32.1257 117.157 31.7481 118.127 27.661 118.895C23.0499 119.763 17.3616 119.662 13.989 119.105C13.989 119.106 14.68 119.678 18.2302 119.906V119.906Z" fill="#0074BD"/>
<defs>
<clipPath id="clip0_348_2903">
<path d="M0 5C0 2.23858 2.23858 0 5 0H165C167.761 0 170 2.23858 170 5V145C170 147.761 167.761 150 165 150H5C2.23858 150 0 147.761 0 145V5Z" fill="white"/>
</clipPath>
</defs>
</svg>
