<svg width="170" height="150" viewBox="0 0 170 150" fill="none" xmlns="http://www.w3.org/2000/svg">
<g clip-path="url(#clip0_348_2905)">
<path d="M0 72.3833C73 112 107 26 170 72.3833V150H0V72.3833Z" fill="#E5D1FE"/>
<path d="M0 90.0026C61 39.5 124.5 115 170 90.0026V150H0V90.0026Z" fill="#ACB0F2"/>
<path d="M19.248 131.288C19.248 131.885 19.104 132.445 18.816 132.968C18.5387 133.491 18.096 133.912 17.488 134.232C16.8907 134.552 16.1333 134.712 15.216 134.712H13.344V139H11.104V127.832H15.216C16.08 127.832 16.816 127.981 17.424 128.28C18.032 128.579 18.4853 128.989 18.784 129.512C19.0933 130.035 19.248 130.627 19.248 131.288ZM15.12 132.904C15.7387 132.904 16.1973 132.765 16.496 132.488C16.7947 132.2 16.944 131.8 16.944 131.288C16.944 130.2 16.336 129.656 15.12 129.656H13.344V132.904H15.12ZM30.1024 127.832V139H27.8624V134.248H23.0784V139H20.8384V127.832H23.0784V132.424H27.8624V127.832H30.1024ZM40.4511 131.288C40.4511 131.885 40.3071 132.445 40.0191 132.968C39.7418 133.491 39.2991 133.912 38.6911 134.232C38.0938 134.552 37.3365 134.712 36.4191 134.712H34.5471V139H32.3071V127.832H36.4191C37.2831 127.832 38.0191 127.981 38.6271 128.28C39.2351 128.579 39.6885 128.989 39.9871 129.512C40.2965 130.035 40.4511 130.627 40.4511 131.288ZM36.3231 132.904C36.9418 132.904 37.4005 132.765 37.6991 132.488C37.9978 132.2 38.1471 131.8 38.1471 131.288C38.1471 130.2 37.5391 129.656 36.3231 129.656H34.5471V132.904H36.3231Z" fill="#383838"/>
<path d="M134.735 129.272H129.551V132.008C129.775 131.731 130.095 131.507 130.511 131.336C130.927 131.155 131.37 131.064 131.839 131.064C132.692 131.064 133.391 131.251 133.935 131.624C134.479 131.997 134.874 132.477 135.119 133.064C135.364 133.64 135.487 134.259 135.487 134.92C135.487 136.147 135.135 137.133 134.431 137.88C133.738 138.627 132.746 139 131.455 139C130.239 139 129.268 138.696 128.543 138.088C127.818 137.48 127.407 136.685 127.311 135.704H129.487C129.583 136.131 129.796 136.472 130.127 136.728C130.468 136.984 130.9 137.112 131.423 137.112C132.052 137.112 132.527 136.915 132.847 136.52C133.167 136.125 133.327 135.603 133.327 134.952C133.327 134.291 133.162 133.789 132.831 133.448C132.511 133.096 132.036 132.92 131.407 132.92C130.959 132.92 130.586 133.032 130.287 133.256C129.988 133.48 129.775 133.779 129.647 134.152H127.503V127.304H134.735V129.272ZM137.192 133.016C137.192 131.171 137.522 129.725 138.184 128.68C138.856 127.635 139.965 127.112 141.512 127.112C143.058 127.112 144.162 127.635 144.824 128.68C145.496 129.725 145.832 131.171 145.832 133.016C145.832 134.872 145.496 136.328 144.824 137.384C144.162 138.44 143.058 138.968 141.512 138.968C139.965 138.968 138.856 138.44 138.184 137.384C137.522 136.328 137.192 134.872 137.192 133.016ZM143.624 133.016C143.624 132.227 143.57 131.565 143.464 131.032C143.368 130.488 143.165 130.045 142.856 129.704C142.557 129.363 142.109 129.192 141.512 129.192C140.914 129.192 140.461 129.363 140.152 129.704C139.853 130.045 139.65 130.488 139.544 131.032C139.448 131.565 139.4 132.227 139.4 133.016C139.4 133.827 139.448 134.509 139.544 135.064C139.64 135.608 139.842 136.051 140.152 136.392C140.461 136.723 140.914 136.888 141.512 136.888C142.109 136.888 142.562 136.723 142.872 136.392C143.181 136.051 143.384 135.608 143.48 135.064C143.576 134.509 143.624 133.827 143.624 133.016ZM147.28 130.2C147.28 129.389 147.514 128.755 147.984 128.296C148.464 127.837 149.077 127.608 149.824 127.608C150.57 127.608 151.178 127.837 151.648 128.296C152.128 128.755 152.368 129.389 152.368 130.2C152.368 131.021 152.128 131.661 151.648 132.12C151.178 132.579 150.57 132.808 149.824 132.808C149.077 132.808 148.464 132.579 147.984 132.12C147.514 131.661 147.28 131.021 147.28 130.2ZM157.552 127.8L151.264 139H149.088L155.36 127.8H157.552ZM149.808 128.952C149.221 128.952 148.928 129.368 148.928 130.2C148.928 131.043 149.221 131.464 149.808 131.464C150.096 131.464 150.32 131.363 150.48 131.16C150.64 130.947 150.72 130.627 150.72 130.2C150.72 129.368 150.416 128.952 149.808 128.952ZM154.304 136.584C154.304 135.763 154.538 135.128 155.008 134.68C155.488 134.221 156.101 133.992 156.848 133.992C157.594 133.992 158.197 134.221 158.656 134.68C159.125 135.128 159.36 135.763 159.36 136.584C159.36 137.405 159.125 138.045 158.656 138.504C158.197 138.963 157.594 139.192 156.848 139.192C156.09 139.192 155.477 138.963 155.008 138.504C154.538 138.045 154.304 137.405 154.304 136.584ZM156.832 135.336C156.224 135.336 155.92 135.752 155.92 136.584C155.92 137.427 156.224 137.848 156.832 137.848C157.429 137.848 157.728 137.427 157.728 136.584C157.728 135.752 157.429 135.336 156.832 135.336Z" fill="#616161"/>
</g>
<path d="M28.1522 97C17.5751 97 9 101.925 9 108C9 114.075 17.5751 119 28.1522 119C38.7293 119 47.3044 114.075 47.3044 108C47.3044 101.925 38.7293 97 28.1522 97V97ZM23.1687 110.143C22.7116 110.628 22.2041 110.828 21.6451 111.034C21.0862 111.24 20.3749 111.198 19.51 111.198H17.5497L17.0065 114.75H14.7177L16.7601 102.671H21.1614C22.4856 102.671 23.4515 103.102 24.0587 103.89C24.6659 104.678 24.8484 105.796 24.6063 107.207C24.5063 107.789 24.338 108.33 24.1004 108.811C23.8624 109.294 23.5518 109.744 23.1687 110.143V110.143ZM29.8494 111.198L30.7526 106.074C30.8554 105.475 30.8178 105.029 30.6394 104.811C30.4607 104.593 30.0808 104.447 29.4999 104.447H27.6848L26.5152 111.198H24.2443L26.2866 99.4731H28.5575L28.0146 102.671H30.0375C31.3106 102.671 32.1883 102.96 32.6714 103.463C33.1545 103.966 33.2993 104.656 33.1062 105.783L32.1561 111.198H29.8494ZM42.4701 107.226C42.3704 107.808 42.2018 108.339 41.9645 108.821C41.7268 109.303 41.4165 109.744 41.0331 110.143C40.576 110.628 40.0682 110.828 39.5095 111.034C38.9509 111.24 38.239 111.198 37.3741 111.198H35.4138L34.8709 114.75H32.5821L34.6241 102.671H39.0258C40.35 102.671 41.3158 103.102 41.9228 103.89C42.5294 104.678 42.7121 105.815 42.4701 107.226V107.226ZM38.1584 104.447H36.5907L35.7358 109.421H37.1283C38.0506 109.421 38.7384 109.318 39.1898 108.924C39.6418 108.53 39.9462 107.919 40.1045 106.998C40.2563 106.113 40.1873 105.422 39.8976 105.059C39.6077 104.695 39.028 104.447 38.1584 104.447V104.447ZM20.2943 104.447H18.7263L17.8714 109.421H19.2636C20.1862 109.421 20.8736 109.318 21.3254 108.924C21.7771 108.53 22.0818 107.919 22.2398 106.998C22.3916 106.113 22.3226 105.422 22.0329 105.059C21.7433 104.695 21.1639 104.447 20.2943 104.447Z" fill="#6181B6"/>
<defs>
<clipPath id="clip0_348_2905">
<path d="M0 5C0 2.23858 2.23858 0 5 0H165C167.761 0 170 2.23858 170 5V145C170 147.761 167.761 150 165 150H5C2.23858 150 0 147.761 0 145V5Z" fill="white"/>
</clipPath>
</defs>
</svg>
