<svg width="170" height="150" viewBox="0 0 170 150" fill="none" xmlns="http://www.w3.org/2000/svg">
<g clip-path="url(#clip0_348_2557)">
<path d="M0 100.11C68 67.5 106.5 118.5 170 100.11V150H0V100.11Z" fill="#87D9A7"/>
<path d="M0 107.859C68 128.534 115.5 61.1556 170 107.859V150H0V107.859Z" fill="#6BC28E"/>
<path d="M23.28 127.832V139H21.04V131.736L18.048 139H16.352L13.344 131.736V139H11.104V127.832H13.648L17.2 136.136L20.752 127.832H23.28ZM29.4306 139.144C28.5773 139.144 27.8093 138.957 27.1266 138.584C26.444 138.2 25.9053 137.661 25.5106 136.968C25.1266 136.275 24.9346 135.475 24.9346 134.568C24.9346 133.661 25.132 132.861 25.5266 132.168C25.932 131.475 26.4813 130.941 27.1746 130.568C27.868 130.184 28.6413 129.992 29.4946 129.992C30.348 129.992 31.1213 130.184 31.8146 130.568C32.508 130.941 33.052 131.475 33.4466 132.168C33.852 132.861 34.0546 133.661 34.0546 134.568C34.0546 135.475 33.8466 136.275 33.4306 136.968C33.0253 137.661 32.4706 138.2 31.7666 138.584C31.0733 138.957 30.2946 139.144 29.4306 139.144ZM29.4306 137.192C29.836 137.192 30.2146 137.096 30.5666 136.904C30.9293 136.701 31.2173 136.403 31.4306 136.008C31.644 135.613 31.7506 135.133 31.7506 134.568C31.7506 133.725 31.5266 133.08 31.0786 132.632C30.6413 132.173 30.1026 131.944 29.4626 131.944C28.8226 131.944 28.284 132.173 27.8466 132.632C27.42 133.08 27.2066 133.725 27.2066 134.568C27.2066 135.411 27.4146 136.061 27.8306 136.52C28.2573 136.968 28.7906 137.192 29.4306 137.192ZM40.6098 130.008C41.6658 130.008 42.5191 130.344 43.1698 131.016C43.8204 131.677 44.1458 132.605 44.1458 133.8V139H41.9058V134.104C41.9058 133.4 41.7298 132.861 41.3778 132.488C41.0258 132.104 40.5458 131.912 39.9378 131.912C39.3191 131.912 38.8284 132.104 38.4658 132.488C38.1138 132.861 37.9378 133.4 37.9378 134.104V139H35.6978V130.136H37.9378V131.24C38.2364 130.856 38.6151 130.557 39.0738 130.344C39.5431 130.12 40.0551 130.008 40.6098 130.008ZM49.7479 129.992C50.4092 129.992 50.9905 130.125 51.4919 130.392C51.9932 130.648 52.3879 130.984 52.6759 131.4V130.136H54.9319V139.064C54.9319 139.885 54.7665 140.616 54.4359 141.256C54.1052 141.907 53.6092 142.419 52.9479 142.792C52.2865 143.176 51.4865 143.368 50.5479 143.368C49.2892 143.368 48.2545 143.075 47.4439 142.488C46.6439 141.901 46.1905 141.101 46.0839 140.088H48.3079C48.4252 140.493 48.6759 140.813 49.0599 141.048C49.4545 141.293 49.9292 141.416 50.4839 141.416C51.1345 141.416 51.6625 141.219 52.0679 140.824C52.4732 140.44 52.6759 139.853 52.6759 139.064V137.688C52.3879 138.104 51.9879 138.451 51.4759 138.728C50.9745 139.005 50.3985 139.144 49.7479 139.144C49.0012 139.144 48.3185 138.952 47.6999 138.568C47.0812 138.184 46.5905 137.645 46.2279 136.952C45.8759 136.248 45.6999 135.443 45.6999 134.536C45.6999 133.64 45.8759 132.845 46.2279 132.152C46.5905 131.459 47.0759 130.925 47.6839 130.552C48.3025 130.179 48.9905 129.992 49.7479 129.992ZM52.6759 134.568C52.6759 134.024 52.5692 133.56 52.3559 133.176C52.1425 132.781 51.8545 132.483 51.4919 132.28C51.1292 132.067 50.7399 131.96 50.3239 131.96C49.9079 131.96 49.5239 132.061 49.1719 132.264C48.8199 132.467 48.5319 132.765 48.3079 133.16C48.0945 133.544 47.9879 134.003 47.9879 134.536C47.9879 135.069 48.0945 135.539 48.3079 135.944C48.5319 136.339 48.8199 136.643 49.1719 136.856C49.5345 137.069 49.9185 137.176 50.3239 137.176C50.7399 137.176 51.1292 137.075 51.4919 136.872C51.8545 136.659 52.1425 136.36 52.3559 135.976C52.5692 135.581 52.6759 135.112 52.6759 134.568ZM61.0556 139.144C60.2023 139.144 59.4343 138.957 58.7516 138.584C58.069 138.2 57.5303 137.661 57.1356 136.968C56.7516 136.275 56.5596 135.475 56.5596 134.568C56.5596 133.661 56.757 132.861 57.1516 132.168C57.557 131.475 58.1063 130.941 58.7996 130.568C59.493 130.184 60.2663 129.992 61.1196 129.992C61.973 129.992 62.7463 130.184 63.4396 130.568C64.133 130.941 64.677 131.475 65.0716 132.168C65.477 132.861 65.6796 133.661 65.6796 134.568C65.6796 135.475 65.4716 136.275 65.0556 136.968C64.6503 137.661 64.0956 138.2 63.3916 138.584C62.6983 138.957 61.9196 139.144 61.0556 139.144ZM61.0556 137.192C61.461 137.192 61.8396 137.096 62.1916 136.904C62.5543 136.701 62.8423 136.403 63.0556 136.008C63.269 135.613 63.3756 135.133 63.3756 134.568C63.3756 133.725 63.1516 133.08 62.7036 132.632C62.2663 132.173 61.7276 131.944 61.0876 131.944C60.4476 131.944 59.909 132.173 59.4716 132.632C59.045 133.08 58.8316 133.725 58.8316 134.568C58.8316 135.411 59.0396 136.061 59.4556 136.52C59.8823 136.968 60.4156 137.192 61.0556 137.192ZM71.2268 127.832C72.4001 127.832 73.4294 128.061 74.3148 128.52C75.2108 128.979 75.8988 129.635 76.3788 130.488C76.8694 131.331 77.1148 132.312 77.1148 133.432C77.1148 134.552 76.8694 135.533 76.3788 136.376C75.8988 137.208 75.2108 137.853 74.3148 138.312C73.4294 138.771 72.4001 139 71.2268 139H67.3228V127.832H71.2268ZM71.1468 137.096C72.3201 137.096 73.2268 136.776 73.8668 136.136C74.5068 135.496 74.8268 134.595 74.8268 133.432C74.8268 132.269 74.5068 131.363 73.8668 130.712C73.2268 130.051 72.3201 129.72 71.1468 129.72H69.5628V137.096H71.1468ZM85.1275 133.272C85.7568 133.389 86.2742 133.704 86.6795 134.216C87.0848 134.728 87.2875 135.315 87.2875 135.976C87.2875 136.573 87.1382 137.101 86.8395 137.56C86.5515 138.008 86.1302 138.36 85.5755 138.616C85.0208 138.872 84.3648 139 83.6075 139H78.7915V127.832H83.3995C84.1568 127.832 84.8075 127.955 85.3515 128.2C85.9062 128.445 86.3222 128.787 86.5995 129.224C86.8875 129.661 87.0315 130.157 87.0315 130.712C87.0315 131.363 86.8555 131.907 86.5035 132.344C86.1622 132.781 85.7035 133.091 85.1275 133.272ZM81.0315 132.44H83.0795C83.6128 132.44 84.0235 132.323 84.3115 132.088C84.5995 131.843 84.7435 131.496 84.7435 131.048C84.7435 130.6 84.5995 130.253 84.3115 130.008C84.0235 129.763 83.6128 129.64 83.0795 129.64H81.0315V132.44ZM83.2875 137.176C83.8315 137.176 84.2528 137.048 84.5515 136.792C84.8608 136.536 85.0155 136.173 85.0155 135.704C85.0155 135.224 84.8555 134.851 84.5355 134.584C84.2155 134.307 83.7835 134.168 83.2395 134.168H81.0315V137.176H83.2875Z" fill="#383838"/>
<path d="M127.31 130.408C127.363 129.341 127.736 128.52 128.43 127.944C129.134 127.357 130.056 127.064 131.198 127.064C131.976 127.064 132.643 127.203 133.198 127.48C133.752 127.747 134.168 128.115 134.446 128.584C134.734 129.043 134.878 129.565 134.878 130.152C134.878 130.824 134.702 131.395 134.35 131.864C134.008 132.323 133.598 132.632 133.118 132.792V132.856C133.736 133.048 134.216 133.389 134.558 133.88C134.91 134.371 135.086 135 135.086 135.768C135.086 136.408 134.936 136.979 134.638 137.48C134.35 137.981 133.918 138.376 133.342 138.664C132.776 138.941 132.094 139.08 131.294 139.08C130.088 139.08 129.107 138.776 128.35 138.168C127.592 137.56 127.192 136.664 127.15 135.48H129.326C129.347 136.003 129.523 136.424 129.854 136.744C130.195 137.053 130.659 137.208 131.246 137.208C131.79 137.208 132.206 137.059 132.494 136.76C132.792 136.451 132.942 136.056 132.942 135.576C132.942 134.936 132.739 134.477 132.334 134.2C131.928 133.923 131.299 133.784 130.446 133.784H129.982V131.944H130.446C131.96 131.944 132.718 131.437 132.718 130.424C132.718 129.965 132.579 129.608 132.302 129.352C132.035 129.096 131.646 128.968 131.134 128.968C130.632 128.968 130.243 129.107 129.966 129.384C129.699 129.651 129.544 129.992 129.502 130.408H127.31ZM144.696 129.272H139.512V132.008C139.736 131.731 140.056 131.507 140.472 131.336C140.888 131.155 141.33 131.064 141.8 131.064C142.653 131.064 143.352 131.251 143.896 131.624C144.44 131.997 144.834 132.477 145.08 133.064C145.325 133.64 145.448 134.259 145.448 134.92C145.448 136.147 145.096 137.133 144.392 137.88C143.698 138.627 142.706 139 141.416 139C140.2 139 139.229 138.696 138.504 138.088C137.778 137.48 137.368 136.685 137.272 135.704H139.448C139.544 136.131 139.757 136.472 140.088 136.728C140.429 136.984 140.861 137.112 141.384 137.112C142.013 137.112 142.488 136.915 142.808 136.52C143.128 136.125 143.288 135.603 143.288 134.952C143.288 134.291 143.122 133.789 142.792 133.448C142.472 133.096 141.997 132.92 141.368 132.92C140.92 132.92 140.546 133.032 140.248 133.256C139.949 133.48 139.736 133.779 139.608 134.152H137.464V127.304H144.696V129.272ZM146.897 130.2C146.897 129.389 147.131 128.755 147.601 128.296C148.081 127.837 148.694 127.608 149.441 127.608C150.187 127.608 150.795 127.837 151.265 128.296C151.745 128.755 151.985 129.389 151.985 130.2C151.985 131.021 151.745 131.661 151.265 132.12C150.795 132.579 150.187 132.808 149.441 132.808C148.694 132.808 148.081 132.579 147.601 132.12C147.131 131.661 146.897 131.021 146.897 130.2ZM157.169 127.8L150.881 139H148.705L154.977 127.8H157.169ZM149.425 128.952C148.838 128.952 148.545 129.368 148.545 130.2C148.545 131.043 148.838 131.464 149.425 131.464C149.713 131.464 149.937 131.363 150.097 131.16C150.257 130.947 150.337 130.627 150.337 130.2C150.337 129.368 150.033 128.952 149.425 128.952ZM153.921 136.584C153.921 135.763 154.155 135.128 154.625 134.68C155.105 134.221 155.718 133.992 156.465 133.992C157.211 133.992 157.814 134.221 158.273 134.68C158.742 135.128 158.977 135.763 158.977 136.584C158.977 137.405 158.742 138.045 158.273 138.504C157.814 138.963 157.211 139.192 156.465 139.192C155.707 139.192 155.094 138.963 154.625 138.504C154.155 138.045 153.921 137.405 153.921 136.584ZM156.449 135.336C155.841 135.336 155.537 135.752 155.537 136.584C155.537 137.427 155.841 137.848 156.449 137.848C157.046 137.848 157.345 137.427 157.345 136.584C157.345 135.752 157.046 135.336 156.449 135.336Z" fill="#616161"/>
<path fill-rule="evenodd" clip-rule="evenodd" d="M30.6532 98.7889C31.048 99.9309 31.3323 101.097 31.4258 102.305C31.5419 103.804 31.4887 105.293 31.1727 106.767C31.1641 106.808 31.1459 106.846 31.1324 106.885C31.0332 106.885 30.9322 106.873 30.8352 106.888C30.0165 107.017 29.1984 107.15 28.3804 107.283C27.5348 107.42 26.688 107.551 25.8439 107.698C25.5448 107.749 25.1747 107.687 25.0539 108.101C25.0505 108.112 25.016 108.114 24.9961 108.121L25.0369 105.649C25.0229 103.661 25.0091 101.672 24.9954 99.684L25.3894 99.6163C26.0338 99.5108 26.6782 99.4038 27.3231 99.3013C28.0926 99.179 28.863 99.0602 29.633 98.9409C29.9727 98.8881 30.3128 98.8396 30.6532 98.7889V98.7889Z" fill="#439934"/>
<path fill-rule="evenodd" clip-rule="evenodd" d="M24.1825 115.327C23.7668 114.97 23.3367 114.628 22.9382 114.252C20.7943 112.23 19.2261 109.85 18.4538 106.98C18.241 106.191 18.0991 105.388 18.0536 104.572C18.0216 104.001 17.9754 103.425 18.0157 102.857C18.1232 101.345 18.3416 99.8489 18.7848 98.3933L18.8092 98.3594C18.8522 98.4167 18.9142 98.4673 18.9361 98.532C19.3687 99.8061 19.7981 101.081 20.2254 102.357C21.5678 106.366 22.9085 110.376 24.2531 114.384C24.2794 114.462 24.3475 114.526 24.3965 114.597L24.1825 115.327Z" fill="#45A538"/>
<path fill-rule="evenodd" clip-rule="evenodd" d="M30.6533 98.789C30.3129 98.8396 29.9725 98.8881 29.6328 98.9405C28.8627 99.0598 28.0924 99.1786 27.3228 99.3008C26.6779 99.4034 26.0335 99.5103 25.3891 99.6159L24.9951 99.6835L24.9922 99.4265C24.9791 99.2152 24.9568 99.0042 24.9543 98.7929C24.9373 97.4456 24.9268 96.0982 24.91 94.7509C24.8997 93.9076 24.8842 93.0644 24.867 92.2213C24.8564 91.6974 24.8451 91.1733 24.8215 90.6502C24.8087 90.369 24.7634 90.0894 24.745 89.8083C24.7347 89.6467 24.7489 89.4839 24.7521 89.3215C24.9531 89.7109 25.1496 90.1032 25.3562 90.4896C25.6826 91.1005 26.2025 91.5506 26.6706 92.0418C28.5209 93.9828 29.8345 96.2397 30.6533 98.789V98.789Z" fill="#46A037"/>
<path fill-rule="evenodd" clip-rule="evenodd" d="M24.9959 108.121C25.0158 108.114 25.0505 108.112 25.0537 108.101C25.1744 107.687 25.5446 107.749 25.8437 107.697C26.6878 107.551 27.5346 107.419 28.3802 107.282C29.1982 107.15 30.0162 107.016 30.835 106.888C30.9319 106.873 31.033 106.885 31.1321 106.885C30.9791 107.431 30.8586 107.989 30.6646 108.52C30.4442 109.122 30.1776 109.71 29.8945 110.286C29.4715 111.148 28.9444 111.951 28.332 112.687C27.86 113.255 27.3339 113.78 26.8066 114.298C26.5151 114.584 26.1715 114.818 25.8518 115.075L25.7689 115.019L25.4703 114.763L25.1614 114.086C24.9487 113.294 24.837 112.487 24.8185 111.667L24.8242 111.529L24.8663 110.932C24.8803 110.728 24.899 110.525 24.9076 110.321C24.9393 109.587 24.9669 108.854 24.9959 108.121V108.121Z" fill="#409433"/>
<path fill-rule="evenodd" clip-rule="evenodd" d="M24.9959 108.121C24.9669 108.854 24.9393 109.587 24.9081 110.321C24.8995 110.525 24.8808 110.729 24.8668 110.932L24.6786 111.003C24.2607 109.773 23.8426 108.556 23.4336 107.335C22.7572 105.316 22.089 103.294 21.4136 101.275C20.8683 99.6446 20.3186 98.0161 19.7657 96.3884C19.7399 96.3122 19.6656 96.2526 19.614 96.1853L20.8181 93.9712C20.8595 94.043 20.9141 94.1102 20.9401 94.1874C21.4972 95.836 22.0533 97.4849 22.6047 99.1354C23.3219 101.283 24.0347 103.431 24.7514 105.579C24.7799 105.665 24.8272 105.744 24.8722 105.84L25.037 105.648C25.0232 106.472 25.0094 107.296 24.9959 108.121V108.121Z" fill="#4FAA41"/>
<path fill-rule="evenodd" clip-rule="evenodd" d="M19.6142 96.1854C19.6658 96.2528 19.7399 96.3123 19.7659 96.3886C20.3188 98.0163 20.8685 99.6447 21.4138 101.275C22.0892 103.294 22.7574 105.317 23.4338 107.336C23.8426 108.556 24.2607 109.773 24.6788 111.004L24.867 110.932L24.8249 111.529L24.7868 111.667C24.7214 112.32 24.6663 112.975 24.5866 113.626C24.5465 113.953 24.4614 114.274 24.3967 114.597C24.348 114.527 24.2796 114.462 24.2533 114.384C22.9087 110.376 21.568 106.366 20.2256 102.357C19.7984 101.081 19.369 99.8063 18.9363 98.5323C18.9144 98.4676 18.8527 98.4169 18.8094 98.3596C19.0775 97.6348 19.3458 96.91 19.6142 96.1854V96.1854Z" fill="#4AA73C"/>
<path fill-rule="evenodd" clip-rule="evenodd" d="M25.0367 105.649L24.8719 105.84C24.8269 105.744 24.7797 105.665 24.7511 105.579C24.0347 103.432 23.3217 101.283 22.6045 99.1357C22.053 97.4851 21.4969 95.8363 20.9399 94.1877C20.914 94.1104 20.8594 94.043 20.8179 93.9715L22.3071 92.0125C22.3541 92.0752 22.421 92.131 22.4453 92.2016C22.8588 93.4119 23.2685 94.6237 23.6758 95.8363C24.0563 96.9686 24.4312 98.1027 24.8161 99.2336C24.8419 99.3094 24.9317 99.363 24.9917 99.4269L24.9946 99.6839C25.0089 101.672 25.0229 103.66 25.0367 105.649V105.649Z" fill="#57AE47"/>
<path fill-rule="evenodd" clip-rule="evenodd" d="M24.9922 99.4264C24.9322 99.3625 24.8424 99.3088 24.8166 99.2331C24.4317 98.1022 24.0568 96.9681 23.6763 95.8357C23.269 94.6232 22.8593 93.4116 22.4458 92.2011C22.4215 92.1305 22.3546 92.0746 22.3076 92.0119C22.7919 91.5377 23.2612 91.0466 23.7649 90.5943C24.2128 90.1924 24.5728 89.7615 24.5893 89.1264C24.5901 89.1001 24.6038 89.0738 24.625 89L24.7526 89.3212C24.7494 89.4838 24.7349 89.6464 24.7455 89.808C24.7639 90.0891 24.8092 90.3687 24.822 90.6498C24.8456 91.173 24.8569 91.6971 24.8675 92.221C24.8845 93.0641 24.9 93.9072 24.9105 94.7506C24.927 96.0979 24.9378 97.4453 24.9548 98.7926C24.9568 99.0043 24.9789 99.2151 24.9922 99.4264V99.4264Z" fill="#60B24F"/>
<path fill-rule="evenodd" clip-rule="evenodd" d="M24.3962 114.597C24.4609 114.273 24.546 113.953 24.5861 113.626C24.666 112.975 24.7209 112.32 24.7863 111.666L24.8025 111.664L24.8188 111.667C24.8372 112.487 24.9489 113.294 25.1616 114.086C25.1183 114.143 25.0571 114.194 25.0342 114.259C24.8554 114.763 24.6869 115.271 24.5072 115.775C24.4826 115.844 24.4142 115.898 24.366 115.958L24.1823 115.327L24.3962 114.597Z" fill="#A9AA88"/>
<path fill-rule="evenodd" clip-rule="evenodd" d="M24.3662 115.958C24.4144 115.898 24.483 115.844 24.5074 115.775C24.6872 115.271 24.8559 114.763 25.0345 114.259C25.0573 114.195 25.1183 114.144 25.1619 114.087L25.4705 114.764C25.4095 114.85 25.3254 114.928 25.2915 115.025L24.7002 116.761C24.6759 116.831 24.5927 116.88 24.5371 116.939L24.3662 115.958Z" fill="#B6B598"/>
<path fill-rule="evenodd" clip-rule="evenodd" d="M24.5371 116.939C24.593 116.88 24.6759 116.831 24.7002 116.761L25.2915 115.025C25.3252 114.929 25.4095 114.85 25.4705 114.764L25.7694 115.019C25.625 115.161 25.5448 115.326 25.593 115.535L25.5023 115.832C25.4609 115.883 25.4012 115.927 25.3808 115.985C25.1744 116.576 24.9774 117.17 24.7696 117.761C24.7432 117.836 24.6702 117.895 24.6185 117.961C24.5917 117.62 24.5644 117.28 24.5371 116.939V116.939Z" fill="#C2C1A7"/>
<path fill-rule="evenodd" clip-rule="evenodd" d="M24.6188 117.961C24.6702 117.895 24.7433 117.836 24.7698 117.761C24.9776 117.171 25.1747 116.576 25.381 115.985C25.4014 115.927 25.4609 115.883 25.5025 115.832L25.3773 117.195C25.3439 117.234 25.2954 117.268 25.2794 117.313C25.138 117.71 25.0047 118.11 24.8628 118.507C24.8335 118.589 24.7774 118.661 24.7337 118.737C24.6948 118.686 24.6252 118.637 24.622 118.584C24.6095 118.377 24.6181 118.169 24.6188 117.961V117.961Z" fill="#CECDB7"/>
<path fill-rule="evenodd" clip-rule="evenodd" d="M24.7334 118.737C24.7772 118.661 24.8333 118.588 24.8626 118.507C25.0047 118.11 25.1378 117.71 25.2792 117.313C25.2952 117.268 25.3439 117.234 25.3771 117.196L25.38 118.091L25.0805 118.859L24.7334 118.737Z" fill="#DBDAC7"/>
<path fill-rule="evenodd" clip-rule="evenodd" d="M25.0804 118.859L25.38 118.091L25.4417 119L25.0804 118.859Z" fill="#EBE9DC"/>
<path fill-rule="evenodd" clip-rule="evenodd" d="M25.593 115.535C25.5448 115.326 25.6248 115.161 25.7694 115.019L25.8523 115.075L25.593 115.535Z" fill="#CECDB7"/>
<path fill-rule="evenodd" clip-rule="evenodd" d="M24.8188 111.667L24.8025 111.664L24.7863 111.667L24.8244 111.529L24.8188 111.667Z" fill="#4FAA41"/>
</g>
<defs>
<clipPath id="clip0_348_2557">
<path d="M0 5C0 2.23858 2.23858 0 5 0H165C167.761 0 170 2.23858 170 5V145C170 147.761 167.761 150 165 150H5C2.23858 150 0 147.761 0 145V5Z" fill="white"/>
</clipPath>
</defs>
</svg>
